<svg width="23" height="30" viewBox="0 0 23 30" fill="none" xmlns="http://www.w3.org/2000/svg">
<g clip-path="url(#clip0_95_2348)">
<path d="M16.2637 13.9972C17.2174 13.8619 18.1642 14.3519 18.4954 15.232C18.5765 15.4461 18.516 15.7994 18.5833 15.8992C18.6356 15.9767 19.8751 16.1659 20.3423 16.6204C21.0225 17.2824 20.7202 17.993 20.8782 18.236C20.9085 18.2833 21.6602 18.4685 21.9378 18.6642C22.6633 19.1765 23.1745 20.293 22.945 21.1416C22.6853 22.1044 20.0194 26.5915 19.2828 27.3875C15.3361 31.6499 8.74955 30.2786 5.20824 26.2815C3.29397 24.1207 1.24779 18.0823 0.537327 15.2333C0.107202 13.506 0.322952 11.9494 2.23172 11.2256C5.83625 9.85825 6.43815 14.5082 7.80822 16.246C7.94839 16.4247 8.00886 16.531 8.27957 16.4614L13.9908 6.26571C16.1551 3.51253 19.9836 6.02139 19.0245 9.0189L16.2637 13.9972Z" fill="#BB7CE4"/>
<path d="M11.7081 3.11188C11.1214 2.6587 11.0348 -0.246853 12.5656 0.0171692C14.1556 0.290386 13.4506 4.45432 11.7081 3.11188Z" fill="#BB7CE4"/>
<path d="M5.45148 1.80752C6.42029 1.60392 6.77896 2.27908 7.1445 3.01335C7.54714 3.82381 7.76151 4.89697 6.42304 4.81291C5.59027 4.76168 3.90001 2.13197 5.45148 1.80621V1.80752Z" fill="#BB7CE4"/>
<path d="M0.714562 6.33132C1.15156 6.2525 2.82533 7.09974 3.05895 7.46753C3.53305 8.21231 2.9284 9.06611 2.00768 8.89404C1.74796 8.84544 0.307798 8.08752 0.16763 7.89969C-0.193785 7.42024 0.0494484 6.45348 0.714562 6.33263V6.33132Z" fill="#BB7CE4"/>
</g>
<defs>
<clipPath id="clip0_95_2348">
<rect width="23" height="30" fill="white"/>
</clipPath>
</defs>
</svg>
