<svg width="24" height="28" viewBox="0 0 24 28" fill="none" xmlns="http://www.w3.org/2000/svg">
<g clip-path="url(#clip0_95_2343)">
<path d="M11.7806 0.03075C12.0919 -0.0610891 12.3697 0.0810428 12.6611 0.146642C16.1288 0.922902 19.7009 2.34969 23.1581 3.26152C23.5205 3.43645 23.6239 3.86394 23.6835 4.24223C24.3311 8.36078 24.0198 15.3974 22.4009 19.2437C20.9845 22.6079 17.4302 25.7687 14.2424 27.2129C13.7735 27.425 12.5055 27.9837 12.0605 27.999C11.1268 28.0308 8.33384 26.4903 7.46588 25.9184C0.421921 21.2817 -0.533776 13.6918 0.210937 5.52688C0.305984 4.48604 0.178558 3.5097 1.23139 3.09643C4.50165 1.81068 8.44664 1.26839 11.7806 0.03075ZM17.3153 7.89612C17.143 7.91908 16.9466 8.02622 16.8129 8.14539L11.0202 14.2155C10.2567 13.6328 8.26281 10.9104 7.45856 10.8295C6.74832 10.7573 5.32992 12.2235 5.66311 13.0479L10.4416 18.1034C10.9711 18.5003 11.2218 18.3822 11.7023 17.9919L18.9938 10.3178C19.7761 9.50767 18.0026 7.80318 17.3163 7.89502L17.3153 7.89612Z" fill="#BB7CE4"/>
</g>
<defs>
<clipPath id="clip0_95_2343">
<rect width="24" height="28" fill="white"/>
</clipPath>
</defs>
</svg>
