<svg width="24" height="24" viewBox="0 0 24 24" fill="none" xmlns="http://www.w3.org/2000/svg">
<g clip-path="url(#clip0_95_2336)">
<path d="M1.84251 11.2888C4.55886 10.9233 7.95291 11.5112 10.7408 11.2665C12.0293 11.3837 12.6447 12.0842 12.7442 13.355C12.5592 16.1244 12.9784 19.1859 12.7442 21.92C12.6512 23.0019 12.0609 23.8196 10.9314 23.92C8.06167 24.1768 4.8173 23.7172 1.90666 23.92C0.930557 23.8586 0.200806 23.1665 0.0976178 22.1953C-0.210086 19.3217 0.329093 15.9151 0.0976178 12.9847C0.23799 12.0424 0.908246 11.4135 1.84158 11.2879L1.84251 11.2888ZM9.82702 14.5485C9.67549 14.5569 9.5063 14.6508 9.3901 14.7504L5.16498 18.985C5.02646 18.985 3.57161 17.2007 3.17094 17.0733C2.59923 16.8909 2.09537 17.3961 2.27665 17.9682C2.32964 18.1347 4.45289 20.3032 4.70017 20.4753C4.94745 20.6474 5.08968 20.7208 5.40203 20.6213L10.4183 15.6853C10.8022 15.2406 10.3904 14.5187 9.82795 14.5494L9.82702 14.5485Z" fill="#BB7CE4"/>
<path d="M14.1358 18.3346V12.9855C14.1358 11.5166 12.4895 9.86914 11.0216 9.86914H5.67627V7.3109C5.67627 6.56297 6.68119 5.76294 7.39607 5.68293C10.2491 5.36199 13.684 5.92387 16.6002 5.68293C17.5336 5.81596 18.1871 6.46901 18.32 7.40393C18.0793 10.3213 18.6408 13.7586 18.32 16.6145C18.2401 17.329 17.4406 18.3355 16.6932 18.3355H14.1367L14.1358 18.3346Z" fill="#BB7CE4"/>
<path d="M19.7136 12.7532V7.12504C19.7136 5.94174 18.0607 4.28772 16.8782 4.28772H11.254V1.82251C11.254 1.06899 12.1427 0.196399 12.8892 0.109884C15.8696 0.331288 19.3501 -0.21478 22.271 0.101511C23.089 0.189887 23.8095 0.909915 23.8978 1.72948C23.6542 4.67657 24.2222 8.14927 23.8978 11.0331C23.8095 11.8229 22.9961 12.7541 22.178 12.7541H19.7145L19.7136 12.7532Z" fill="#BB7CE4"/>
</g>
<defs>
<clipPath id="clip0_95_2336">
<rect width="24" height="24" fill="white"/>
</clipPath>
</defs>
</svg>
