<svg width="24" height="30" viewBox="0 0 24 30" fill="none" xmlns="http://www.w3.org/2000/svg">
<path d="M13.5 2C13.5 1.17157 12.8284 0.5 12 0.5C11.1716 0.5 10.5 1.17157 10.5 2H13.5ZM10.9393 29.0607C11.5251 29.6464 12.4749 29.6464 13.0607 29.0607L22.6066 19.5147C23.1924 18.9289 23.1924 17.9792 22.6066 17.3934C22.0208 16.8076 21.0711 16.8076 20.4853 17.3934L12 25.8787L3.51472 17.3934C2.92893 16.8076 1.97919 16.8076 1.3934 17.3934C0.807611 17.9792 0.807611 18.9289 1.3934 19.5147L10.9393 29.0607ZM12 2H10.5V28H12H13.5V2H12Z" fill="white"/>
</svg>
