<svg width="70" height="59" viewBox="0 0 70 59" fill="none" xmlns="http://www.w3.org/2000/svg">
<g clip-path="url(#clip0_95_2460)">
<path d="M52.8732 55.7467C41.8312 60.7553 29.381 59.2711 18.0666 56.0534C18.4288 48.739 16.2498 40.7892 22.2829 35.2603C26.7335 31.1828 35.5829 31.4402 41.3382 31.9714C45.7642 32.3795 50.0841 35.7395 51.7891 39.8116C53.8183 44.6559 52.6171 50.5765 52.8732 55.7494V55.7467Z" fill="#BB7CE4"/>
<path d="M15.6043 48.3967C10.3393 47.7915 5.07979 46.9755 0.0626717 45.2174C0.509364 38.8341 -1.41359 31.799 2.8082 26.3577C7.85256 19.8593 15.4136 21.2915 22.7024 21.4038C23.1681 24.668 24.1051 27.5626 26.4965 29.9149C26.5891 30.4955 26.4039 30.238 26.1234 30.3476C21.3296 32.2344 15.6043 37.4292 15.6043 43.054V48.394V48.3967Z" fill="#BB7CE4"/>
<path d="M55.3708 48.3967V43.6044C55.3708 37.4209 49.9669 32.6177 44.8517 30.3475C44.6692 30.2681 44.2852 30.4242 44.4786 29.9176C44.672 29.411 45.8268 28.2553 46.2245 27.5625C47.3303 25.6401 48.1148 23.5452 48.014 21.2832C52.4537 21.5489 57.2011 20.5712 61.4338 22.1732C65.1817 23.589 68.3031 27.0367 69.3381 30.9308C70.049 33.6117 70.1498 41.5724 69.8229 44.4423C69.7685 44.9188 69.8039 45.0557 69.3762 45.3625C68.7362 45.8225 65.8762 46.7043 64.9638 46.9508C61.8342 47.7969 58.5903 48.1009 55.3708 48.3967Z" fill="#BB7CE4"/>
<path d="M34.0576 10.6772C47.7035 8.81782 49.7463 29.6136 36.9529 31.1143C23.1164 32.7382 20.9919 12.4572 34.0576 10.6772Z" fill="#BB7CE4"/>
<path d="M22.8876 19.0268C22.5798 19.4129 19.8779 20.3577 19.2487 20.4343C6.22922 22.0089 2.99614 4.4664 13.9755 0.616137C20.951 -1.8293 27.8393 3.29161 27.7467 10.617C25.8973 12.3696 24.5545 14.177 23.5631 16.5539C23.307 17.1674 23.1245 18.731 22.8876 19.024V19.0268Z" fill="#BB7CE4"/>
<path d="M48.0794 19.5799C47.6708 16.9072 46.7911 14.6891 45.0261 12.6544C43.528 10.9237 41.9864 10.8853 42.3187 8.30298C43.4572 -0.544964 56.365 -3.05065 61.0389 4.77038C66.323 13.6128 57.4027 23.7506 48.0767 19.5827L48.0794 19.5799Z" fill="#BB7CE4"/>
</g>
<defs>
<clipPath id="clip0_95_2460">
<rect width="70" height="59" fill="white"/>
</clipPath>
</defs>
</svg>
