<svg width="66" height="66" viewBox="0 0 66 66" fill="none" xmlns="http://www.w3.org/2000/svg">
<g clip-path="url(#clip0_95_2471)">
<path d="M31.7054 9.5567C31.5918 9.11856 30.8975 9.2268 30.4251 8.90206C26.4784 6.1933 28.2672 0 33.1251 0C37.4512 0 39.6401 5.72423 36.2252 8.53093C35.6883 8.97423 34.8674 9.03351 34.5448 9.55928H42.1595C43.2565 9.55928 45.688 10.2062 46.8083 10.5876C51.421 12.1495 55.4787 16.1469 56.7693 20.8711C67.244 20.7062 69.6601 35.4304 59.5339 38.5103C58.7001 38.7629 57.6418 38.5309 57.0042 39.0773C56.6248 39.4046 55.8323 41.634 55.3987 42.3711C52.8562 46.6856 47.704 49.8995 42.6809 50.2912C37.6578 50.683 29.0673 50.6366 23.8171 50.2938C18.2906 49.9356 13.3475 46.8608 10.5856 42.1134C10.2474 41.5335 9.31045 39.1134 9.18139 39.0026C8.92068 38.7758 6.68532 38.5619 5.89288 38.2938C-3.68356 35.0335 -0.895812 20.5232 9.20204 20.8608C11.0941 15.3428 15.8462 11.0773 21.6179 9.93557C22.0283 9.85567 23.5719 9.56443 23.8274 9.56443H31.7002L31.7054 9.5567ZM21.8295 22.7655C15.1905 23.8273 15.5442 33.9304 21.7908 34.7938C31.6925 36.165 31.2356 21.2603 21.8295 22.7655ZM41.7052 22.7629C37.3015 23.5155 35.4508 28.9562 38.0527 32.4716C40.6546 35.9871 46.2223 35.5876 48.339 31.7036C50.8557 27.0876 46.816 21.8866 41.7052 22.7629Z" fill="#BB7CE4"/>
<path d="M54.1624 66H11.8299C20.3687 48.9201 45.7656 48.8144 54.1624 66Z" fill="#BB7CE4"/>
</g>
<defs>
<clipPath id="clip0_95_2471">
<rect width="66" height="66" fill="white"/>
</clipPath>
</defs>
</svg>
