<svg width="59" height="58" viewBox="0 0 59 58" fill="none" xmlns="http://www.w3.org/2000/svg">
<path d="M58.4808 31.9258H0.000620524V3.5994C0.000620524 2.00342 2.20888 -0.037506 3.83402 0.000523697H55.6222C56.6357 0.065808 57.6144 0.64893 58.0942 1.5496C58.1595 1.67193 58.4814 2.45154 58.4814 2.50288L58.4808 31.9258ZM26.3222 9.25949C26.1498 9.09343 26.4515 5.19982 26.2906 4.47852C26.0789 3.53158 24.7649 3.65138 24.6141 4.4557C24.4829 5.15165 24.7751 9.08962 24.6058 9.26012L23.9086 9.41541C23.7983 9.56753 23.7781 9.75071 23.7584 9.93325C23.6171 11.2548 23.5911 14.983 23.7698 16.2639C23.8465 16.8116 24.1039 16.7951 24.6058 16.8242C24.7757 16.9941 24.4841 20.9321 24.6141 21.6287C24.7649 22.4355 26.0801 22.5496 26.2906 21.6058C26.5739 20.3363 26.1397 18.2503 26.3096 16.8883C26.3305 16.7697 27.0626 16.9789 27.1722 16.03C27.3002 14.9246 27.3326 10.9841 27.1621 9.94276C27.0264 9.11117 26.4161 9.35013 26.3222 9.25949ZM41.2705 4.05703C40.7983 3.55884 39.9559 3.81807 39.7765 4.51021C39.4533 5.75949 39.8913 7.85112 39.7258 9.19547C39.696 9.3628 39.0825 9.05983 38.9817 9.80712L38.9906 16.3882C39.0996 16.9573 39.6384 16.752 39.7125 16.8236C39.9122 17.0163 39.395 21.3067 39.9584 21.9994C40.3292 22.4552 41.2362 22.3062 41.3712 21.8245C41.7141 20.5955 41.2122 18.3587 41.4397 17.0163C41.543 16.7216 42.3613 16.8952 42.2827 16.2753L42.2738 9.6943C42.2237 9.28928 41.8694 9.28991 41.5436 9.20625C41.1564 8.40192 41.7243 4.53493 41.2705 4.05703ZM18.7822 16.6778C18.62 16.4218 18.8716 12.9192 18.7341 12.1567C18.5515 11.1451 17.4664 11.0165 17.0595 11.8867L17.0646 16.622C17.0253 16.7653 16.3135 16.6854 16.2063 17.247V23.8204C16.3242 24.4511 16.9898 24.3193 17.0506 24.3776C17.2236 24.5443 16.9302 28.4848 17.0601 29.1814C17.2015 29.9413 18.4133 29.9933 18.6821 29.1034C19.0427 27.9099 18.587 25.7485 18.755 24.446C18.7993 24.2825 19.4053 24.4219 19.4934 23.9453L19.4908 17.247C19.3951 16.752 18.8488 16.7824 18.7822 16.6778ZM33.8845 16.6835C33.7273 16.5042 34.0074 12.6213 33.8445 11.9102C33.6461 11.0456 32.3297 11.1394 32.1719 12.1345C31.9633 13.4535 32.3069 15.2485 32.1725 16.622C32.1275 16.7868 31.4157 16.5764 31.3098 17.486C31.0874 19.4001 31.4734 21.7332 31.32 23.6943C31.4379 24.4473 32.1313 24.2939 32.1731 24.4467C32.3145 25.85 31.9538 27.7115 32.1731 29.0565C32.3151 29.928 33.5878 29.9635 33.8179 29.253L33.8642 24.4416L34.6609 24.0042L34.7217 17.2476C34.6153 16.6867 33.9637 16.7735 33.8845 16.6835Z" fill="#BB7CE4"/>
<path d="M58.4808 33.6312V38.3215C58.4808 39.913 56.3867 41.8976 54.7698 41.921L3.59317 41.9166C2.1341 41.8754 0 39.8579 0 38.4438V33.6312H58.4808ZM28.966 36.4593C27.3402 36.7743 27.7199 39.3096 29.4122 39.1106C31.1704 38.9046 30.7927 36.105 28.966 36.4593Z" fill="#BB7CE4"/>
<path d="M15.1986 52.1796L43.07 52.1492C46.1833 52.5859 46.2607 56.7032 43.1917 57.2673H15.2905C12.3439 56.7432 12.2463 52.8147 15.1986 52.1796Z" fill="#BB7CE4"/>
<path d="M20.3473 50.4449C21.1763 48.2728 21.4013 45.9314 21.705 43.6395H36.6557C36.9073 45.9441 37.3573 48.2164 38.0134 50.4449H20.3473Z" fill="#BB7CE4"/>
</svg>
