<svg width="52" height="56" viewBox="0 0 52 56" fill="none" xmlns="http://www.w3.org/2000/svg">
<path d="M22.8486 37.4994C22.5089 37.6513 22.1692 37.7425 21.8912 38.0159C21.7368 38.1678 21.5824 38.3197 21.4897 38.502C21.0264 39.5655 20.2234 40.3858 19.3895 41.2062C18.7718 41.7835 18.6174 42.6038 18.9571 43.333C19.2969 44.0622 20.0072 44.4876 20.8102 44.4876C21.2735 44.4572 21.675 44.3053 22.0147 44.0015C22.9104 43.1811 23.7134 42.3 24.362 41.2973C24.4855 41.115 24.64 41.0239 24.8561 40.9631C26.3077 40.6897 26.2769 40.6897 27.5122 41.4493C30.4463 43.2115 33.3804 44.9738 36.3144 46.7056C37.0557 47.131 37.3645 47.921 37.1174 48.6806C36.8704 49.4098 36.16 49.8351 35.3261 49.7744C35.2643 49.7744 35.2026 49.7744 35.1099 49.744C35.357 50.5036 35.2643 51.172 34.6467 51.6581C34.029 52.1747 33.3495 52.1443 32.6082 51.7189C32.9171 52.6 32.8244 53.3292 32.0832 53.8458C31.342 54.3623 30.6007 54.18 29.8595 53.6027C30.0448 54.5446 29.7977 55.2434 28.9638 55.6384C28.1608 56.003 27.4814 55.6688 26.8328 55.1826C27.1725 54.8788 27.4814 54.5446 27.6358 54.1192C27.9138 53.2381 27.5431 52.3266 26.7092 51.8708C26.493 51.7493 26.4313 51.6885 26.493 51.4151C26.7092 50.6859 26.5239 50.0478 25.968 49.5313C25.4121 49.0148 24.7326 48.8629 23.9914 49.1363C23.7752 49.2275 23.6825 49.1971 23.5899 48.954C23.0957 47.7387 21.6441 47.3437 20.594 48.1336C20.5632 48.1336 20.5632 48.164 20.5323 48.1944C20.3161 48.3463 20.0999 48.6198 19.8837 48.6502C19.6366 48.6805 19.6057 48.2856 19.4513 48.1033C18.8027 47.3437 17.5982 47.2221 16.8261 47.8298C16.579 48.0121 16.3628 48.2248 16.1466 48.4375C16.0231 48.559 15.9613 48.5894 15.776 48.4982C14.4171 47.7387 13.2126 46.8575 12.564 45.3687C12.4713 45.1864 12.286 45.0953 12.1316 44.9738C9.6608 43.2419 7.4062 41.2973 5.49134 38.9882C2.55728 35.4333 0.796843 31.3923 0.179146 26.8347C-0.376782 22.8545 0.39534 19.0565 1.93958 15.3801C3.76179 11.096 6.63408 7.57155 10.4329 4.83703C14.8186 1.7379 19.6984 0.0971866 25.1032 0.00603585C30.261 -0.0851149 35.1099 1.09985 39.5573 3.71283C45.6725 7.32848 49.5949 12.5545 50.9847 19.5123C51.6642 22.8849 51.6642 26.2878 50.5832 29.5997C49.564 32.7292 47.8963 35.4941 45.8579 38.0767C43.7886 40.6897 41.4104 42.9988 38.7235 44.9738C38.0749 45.4599 37.4263 45.946 36.6851 46.2803C36.4689 46.3714 36.3453 46.341 36.16 46.2499C33.0098 44.3661 29.8904 42.4823 26.7401 40.5985C26.5239 40.477 26.3077 40.4162 26.0298 40.477C25.5665 40.5681 25.0723 40.6593 24.6091 40.7201C24.4238 40.7504 24.3002 40.8416 24.2076 40.9935C23.559 42.0265 22.756 42.9381 21.8603 43.7584C21.1809 44.3661 20.1617 44.3357 19.544 43.728C18.8954 43.09 18.9263 42.0873 19.5748 41.4493C20.1617 40.872 20.7485 40.2947 21.2117 39.6262C21.3353 39.4439 21.4897 39.2313 21.5515 39.0186C21.7985 38.3501 22.2927 37.9855 22.9722 37.8032C24.4855 37.3779 26.0298 37.1348 27.6049 37.0436C28.4388 37.0133 29.2727 37.1652 30.1066 37.2563C31.0949 37.3779 32.1141 37.3779 33.1024 37.6817C33.2259 37.7121 33.3495 37.6817 33.4421 37.5905C37.4881 34.6433 41.0089 31.21 43.3562 26.7436C44.5298 24.5256 45.3019 22.1861 45.5181 19.6642C46.0123 14.104 44.1283 9.39457 39.9897 5.56623C37.0557 2.83171 33.5039 1.25176 29.5198 0.674475C24.2385 -0.0851149 19.2351 0.765626 14.6024 3.409C11.3904 5.23201 8.88868 7.75385 7.28266 11.0657C6.29435 13.071 5.76931 15.1674 5.70754 17.3855C5.584 21.4265 6.88116 25.0725 9.0431 28.4451C11.205 31.8784 14.0464 34.7041 17.1967 37.2563C17.3511 37.3779 17.5056 37.3779 17.7217 37.3779H22.8177C22.8486 37.4386 22.8486 37.469 22.8486 37.4994Z" fill="#E40215"/>
<path d="M23.1575 54.3623C21.6441 55.5169 20.0381 54.3623 20.2543 52.8735C20.0381 52.9343 19.791 52.995 19.5748 53.0254C18.6483 53.0862 17.8762 52.4178 17.8144 51.4759C17.8144 51.2632 17.7526 51.2024 17.5364 51.172C16.8261 51.1113 16.301 50.7467 16.054 50.0782C15.8069 49.4098 15.9922 48.8325 16.5172 48.3464C16.9496 47.921 17.4129 47.6172 18.0306 47.6475C18.7101 47.6779 19.2969 48.1033 19.4822 48.7413C19.5131 48.8629 19.5439 48.9844 19.6057 49.1363C19.9763 48.8629 20.2852 48.6198 20.6249 48.3464C21.7677 47.4652 23.1575 47.9818 23.4046 49.4098C23.4046 49.4706 23.3737 49.5617 23.4663 49.6225C23.9296 49.2883 24.4238 49.0756 25.0106 49.2579C26.0607 49.5617 26.5548 50.6251 26.0298 51.5974C25.9062 51.8405 25.968 51.8405 26.1842 51.9316C27.4196 52.3266 27.7902 53.7546 26.8637 54.6661C26.5857 54.9396 26.2768 55.213 25.968 55.4865C25.443 56.003 24.7944 56.1246 24.1149 55.8815C23.4972 55.6384 23.1575 55.1219 23.1575 54.3623Z" fill="#E40215"/>
<path d="M25.8135 35.7676C18.0923 35.7676 11.1741 31.1189 8.73422 24.0091C6.41785 17.2943 7.86944 11.248 12.8419 6.14357C15.6833 3.19636 19.266 1.52526 23.3736 1.06951C29.1491 0.401069 34.2142 1.98102 38.4146 5.96127C43.9121 11.1265 45.4254 18.9958 42.1516 25.7106C39.6191 30.9366 35.3261 34.1269 29.6124 35.403C28.3461 35.6764 27.0798 35.798 25.8135 35.7676ZM16.6716 14.2864C16.7643 14.4383 16.8878 14.5598 16.9805 14.7117C17.382 15.289 17.6908 15.9271 18.0306 16.5651C18.185 16.8386 18.3703 17.1424 18.7718 17.0513C19.6366 16.8082 20.5322 16.6259 21.3352 16.1702C21.9529 15.8359 22.0456 15.1067 21.5823 14.5902C21.3661 14.3471 21.0882 14.256 20.8102 14.4383C20.5014 14.6206 20.2852 14.5294 20.0381 14.3471C19.7601 14.1345 19.5748 13.8306 19.4513 13.5268C19.4204 13.4052 19.3895 13.2837 19.4822 13.1926C19.5748 13.1014 19.6983 13.1622 19.791 13.1926C20.1307 13.3445 20.4087 13.5268 20.6867 13.7698C21.2735 14.3168 21.9838 14.5294 22.7868 14.4991C23.3428 14.4687 23.7134 14.6814 23.9605 15.1371C24.0222 15.2283 24.1149 15.3498 24.1767 15.4409C24.3311 15.7144 24.5164 15.8359 24.8252 15.6536C25.0723 15.5321 25.1959 15.6536 25.3194 15.8663C25.4738 16.1094 25.412 16.3525 25.3503 16.5955C25.2576 16.9601 25.2885 17.3247 25.4738 17.6589C25.6591 17.9932 25.9062 18.3274 26.1842 18.6008C26.6166 19.0262 26.9254 18.9654 27.0798 18.3578C27.1107 18.2059 27.1416 18.0539 27.2034 17.902C27.3269 17.3551 27.6358 16.9297 28.099 16.6259C28.377 16.4132 28.655 16.2309 28.902 16.0182C29.1182 15.8359 29.3962 15.5625 29.7359 15.7144C30.1065 15.8967 30.2919 16.2309 30.3227 16.6259V16.8082C30.3845 17.1728 30.3536 17.6286 30.8169 17.7805C31.6508 18.0843 32.3611 18.6312 33.195 18.9351C33.751 19.1477 34.2142 18.8439 34.276 18.2666C34.3069 17.9324 34.2142 17.6589 34.0289 17.3551C33.7201 16.8994 33.7818 16.6867 34.3378 16.5044C34.7702 16.3525 35.2025 16.3221 35.6349 16.2309C36.1909 16.1094 36.5924 15.7752 36.685 15.1979C36.7468 14.8333 36.5924 14.5294 36.4688 14.2256C36.2217 13.7091 35.9129 13.2533 35.7276 12.7368C35.5114 12.1595 35.7585 11.8557 36.3762 11.9772C36.6541 12.038 36.9012 12.1899 37.0865 12.433C37.2409 12.6153 37.3027 12.8583 37.3645 13.071C37.4263 13.2229 37.488 13.4052 37.6733 13.3749C37.8895 13.3445 37.9204 13.1622 37.9204 12.9799C37.9513 12.6457 37.766 12.3418 37.6116 12.0684C37.3027 11.5518 37.3027 11.2784 37.7351 10.853C38.3528 10.2454 38.5072 9.91113 37.6425 9.09078C37.4263 8.87809 37.2101 8.66541 36.9939 8.45272C36.8703 8.33119 36.7777 8.17927 36.685 7.99697C36.4997 7.60198 36.5924 7.35891 37.0248 7.20699C37.3027 7.11584 37.5807 7.02469 37.8586 6.93354C37.8278 6.78162 37.7042 6.75124 37.6425 6.69047C36.7468 5.9005 35.7585 5.20168 34.6775 4.62439C33.473 3.98633 32.2376 3.34828 30.8169 3.28751C30.4154 3.25713 30.0139 3.13559 29.6433 3.01406C28.7785 2.74061 27.8828 2.49754 26.9872 2.46715C25.968 2.31524 25.0414 2.46715 24.362 3.28751C24.3002 3.34828 24.2075 3.40904 24.1458 3.5002C24.0222 3.62173 23.9296 3.56096 23.8369 3.43943C23.559 3.04444 23.4354 3.01406 22.9413 3.13559C22.6324 3.22674 22.3544 3.37866 22.0765 3.56096C21.8603 3.71288 21.6132 3.83441 21.3352 3.8648C20.872 3.92557 20.5014 4.16863 20.1307 4.4117C19.6675 4.71554 19.2042 5.04976 18.7409 5.38398C18.5865 5.47513 18.4321 5.56628 18.3085 5.62705C18.2159 5.68781 18.0923 5.7182 17.9997 5.62705C17.907 5.5359 17.9379 5.41436 17.9688 5.32321C18.0306 5.20168 18.0923 5.08014 18.1541 4.95861C18.3085 4.62439 18.2468 4.53324 17.8761 4.56362C17.6599 4.594 17.4437 4.62439 17.2276 4.68516C15.8686 5.01937 14.9112 5.99165 13.9538 6.90316C13.892 6.96392 13.8611 7.05508 13.7993 7.14623C13.7376 7.26776 13.6758 7.41968 13.7685 7.5716C13.8611 7.72352 14.0464 7.72352 14.2008 7.72352C14.3861 7.69313 14.5406 7.60198 14.695 7.48045C15.0038 7.23738 15.22 6.90316 15.4671 6.59932C15.5907 6.41702 15.7451 6.2651 15.8995 6.11318C15.9922 6.02203 16.0848 5.93088 16.2392 6.02203C16.3628 6.11318 16.301 6.23472 16.2701 6.35625C16.1157 6.72086 15.8377 6.93354 15.5289 7.14623C14.8185 7.66275 14.0464 8.02735 13.2434 8.42234C12.6257 8.72617 12.1316 9.18193 12.1316 9.94152C12.1316 10.4277 11.9771 10.7923 11.5447 11.0353C11.2359 11.2176 11.0197 11.5215 11.1124 11.8861C11.1432 12.0684 11.0815 12.1595 10.9579 12.2811C10.5255 12.7368 10.1858 13.2533 10.124 13.8914C10.0623 14.4687 10.0005 15.0156 9.93873 15.5929C9.87696 16.2613 10.0932 16.8386 10.402 17.4159C10.5255 17.6286 10.7108 17.7501 10.8962 17.8109C11.1432 17.9324 11.4521 17.9628 11.73 18.0236C12.1933 18.1147 12.5331 18.5097 12.4095 18.9351C12.2551 19.4212 12.3477 19.8466 12.5022 20.2719C12.6257 20.5758 12.6257 20.8796 12.5022 21.1531C12.3786 21.4873 12.3786 21.8215 12.5639 22.1557C12.811 22.6115 13.0581 23.0368 13.2743 23.4926C13.614 24.2826 14.2626 24.7383 15.0038 25.1029C15.2509 25.2245 15.4671 25.2245 15.7142 25.0118C16.023 24.7079 16.1157 24.3737 16.2392 23.9787C16.3319 23.6749 16.3937 23.3407 16.7025 23.1888C17.0114 23.0368 17.1658 22.7938 17.2276 22.4596C17.2893 22.1557 17.3511 21.8215 17.2584 21.5177C16.9805 20.6365 17.4746 20.2112 18.1541 19.877C18.3085 19.8162 18.4321 19.6946 18.5556 19.6035C19.0806 19.2389 19.3895 18.7224 19.6057 18.1451C19.791 17.659 19.6675 17.507 19.1424 17.5374C18.7409 17.5678 18.4012 17.507 18.1232 17.264C17.1967 16.474 16.7643 15.4409 16.6716 14.2864ZM38.569 24.0395C38.4763 23.5534 38.4146 23.4622 38.1057 23.4926C37.4571 23.5534 36.8394 23.7357 36.3762 24.1307C35.882 24.5256 35.4187 24.7687 34.8319 24.8902C34.4613 24.951 34.1525 25.1029 33.9672 25.4371C33.6583 25.9233 33.3803 26.4398 33.1024 26.9563C33.0097 27.1386 32.8244 27.3817 33.0097 27.5336C33.1641 27.6855 33.4112 27.5336 33.5965 27.4425C34.1525 27.2298 34.6466 26.9563 35.2334 26.8348C35.7585 26.7436 36.0364 26.8044 36.3453 27.2602C36.4688 27.4729 36.5924 27.4728 36.8086 27.3209C37.7351 26.6221 38.569 25.8321 39.4029 24.9814C39.8353 24.5256 39.7117 24.0699 39.5882 23.5838C39.5264 23.4014 39.4029 23.3407 39.2176 23.4926C38.9705 23.6749 38.7852 23.8572 38.569 24.0395ZM35.5423 23.0672C35.7894 23.0368 36.0056 23.0976 36.0673 22.8545C36.1291 22.6115 35.882 22.5203 35.6967 22.4899C35.2334 22.3988 34.801 22.338 34.3378 22.2469C33.9054 22.1861 33.5039 22.0342 33.3186 21.6088C33.0097 20.9708 32.5773 20.4239 32.1141 19.9377C31.9905 19.8162 31.8361 19.6947 31.7126 19.5731C31.6199 19.482 31.4964 19.4212 31.3728 19.5124C31.2493 19.6035 31.2802 19.725 31.3111 19.8466C31.3419 20.0593 31.4964 20.1808 31.6199 20.3327C31.9596 20.6973 32.1758 21.0923 32.4229 21.5177C32.7009 22.0038 32.9171 22.4899 33.5965 22.6722C34.2451 22.8545 34.9555 22.9153 35.5423 23.0672ZM36.2217 20.4239C36.2217 20.2416 36.16 20.0593 35.9129 19.9681C35.6967 19.877 35.4805 19.9377 35.357 20.12C35.1717 20.3631 34.9555 20.4239 34.6775 20.4846C34.4304 20.515 34.2142 20.6669 34.2142 20.91C34.2142 21.3657 34.3687 21.7607 34.7393 22.0646C34.9555 22.2469 35.1408 22.2165 35.3261 22.0038C35.5423 21.7607 35.7585 21.5177 35.9438 21.2442C36.0982 21.0315 36.2217 20.7885 36.2217 20.4239ZM40.6074 22.3076C40.6074 21.8823 40.3603 21.5784 39.8662 21.548C39.5264 21.5177 39.2176 21.4265 38.9705 21.1834C38.6925 20.9404 38.4763 20.9708 38.291 21.2442C38.1057 21.4873 38.1675 21.7 38.5072 21.8519C38.8161 22.0038 39.0632 22.2165 39.2794 22.5203C39.3411 22.6419 39.4955 22.7634 39.65 22.6722C39.8662 22.5507 40.0515 22.6115 40.2677 22.6722C40.5147 22.7634 40.6074 22.6419 40.6074 22.3076ZM17.6908 24.161C17.6908 24.4041 17.8144 24.4953 17.9688 24.556C18.1541 24.6472 18.3703 24.7079 18.5247 24.5256C18.8953 24.0091 19.2351 23.4622 19.3586 22.7938C19.3895 22.6722 19.3586 22.5507 19.2351 22.4899C19.1115 22.4292 19.0189 22.4596 18.9262 22.5811C18.8645 22.6722 18.7409 22.7026 18.6483 22.733C18.2365 22.8951 17.9791 23.209 17.8761 23.6749C17.8144 23.8876 17.6599 24.0395 17.6908 24.161ZM39.7735 12.6153C39.7426 12.3418 39.7117 12.0684 39.5573 11.8253C39.4955 11.7341 39.4647 11.5518 39.3102 11.5822C39.1558 11.6126 39.1867 11.7949 39.2176 11.8861C39.2794 12.433 39.0632 12.8583 38.6617 13.2229C38.3528 13.4964 38.1675 13.861 38.2293 14.2864C38.2293 14.3775 38.2601 14.5294 38.3837 14.5598C38.5072 14.5902 38.569 14.4383 38.5999 14.3471C38.7852 13.9218 39.0632 13.5572 39.4647 13.2837C39.6809 13.1318 39.8044 12.8887 39.7735 12.6153ZM37.8586 19.33C37.766 18.5705 37.3645 17.902 37.0865 17.1728C37.0556 17.0817 36.9321 17.0513 36.8394 17.1424C36.5306 17.3855 36.4997 18.0843 36.7777 18.3578C36.9012 18.4793 37.0248 18.5401 37.1483 18.6616C37.4571 18.9351 37.488 19.0566 37.2409 19.3908C37.1174 19.5427 37.1174 19.725 37.3027 19.8162C37.488 19.9377 37.6425 19.877 37.7351 19.6947C37.8278 19.5731 37.8586 19.4516 37.8586 19.33ZM39.9588 9.75922C40.1132 9.425 40.0824 9.18193 39.897 8.96924C39.65 8.66541 39.4029 8.36157 39.1558 8.05773C39.094 7.99697 39.0323 7.87543 38.9087 7.96658C39.372 8.45272 39.6191 9.09078 39.9588 9.75922ZM13.2434 12.6457C13.4596 12.7976 13.6758 12.9191 13.9538 12.9495C14.8494 13.1014 15.6833 12.9191 16.5172 12.5545C16.9187 12.3722 16.9187 12.2203 16.5481 11.9772C16.1775 11.7341 15.7451 11.6126 15.4362 11.2784C15.3745 11.2176 15.3436 11.248 15.2818 11.2784C14.4479 11.5518 14.2008 11.3999 14.0464 10.5492C14.0464 10.5188 14.0464 10.4884 14.0155 10.4277C13.9846 10.3365 14.0464 10.1542 13.8611 10.1846C13.7376 10.215 13.7067 10.3365 13.7376 10.458C13.7685 10.6707 13.8302 10.8834 13.8611 11.0961C13.892 11.2176 13.8611 11.3392 13.7067 11.3999C13.5523 11.4303 13.4287 11.3695 13.3669 11.248C13.3052 11.1265 13.2743 11.0049 13.2434 10.8834C13.1508 10.6403 12.9654 10.4884 12.6875 10.458C12.4404 10.458 12.3477 10.6707 12.2551 10.853C12.0698 11.2176 11.9462 11.5822 11.6683 11.9772C12.286 12.0076 12.811 12.2811 13.2434 12.6457ZM16.6716 10.4884C17.0114 10.4277 17.3511 10.4884 17.6908 10.4277C18.0614 10.3973 18.1232 10.215 17.9379 9.94152C17.7835 9.72883 17.5982 9.57691 17.4129 9.45538C16.6716 8.93886 15.8995 9.21231 15.6833 10.0934C15.6215 10.3365 15.5907 10.5796 15.5289 10.853C15.9304 10.6707 16.301 10.5796 16.6716 10.4884ZM20.5014 11.0049C20.316 10.6707 20.2543 10.3061 20.2234 9.94152C20.1925 9.72883 20.2234 9.51615 20.1925 9.33385C20.1616 9.09078 20.0381 8.99963 19.8219 9.15154C19.6366 9.30346 19.4204 9.45538 19.266 9.6073C19.0806 9.7896 19.0189 9.9719 19.2042 10.1846C19.3586 10.3365 19.3277 10.5188 19.266 10.7011C19.0498 11.248 19.0806 11.3088 19.6366 11.4607C19.791 11.4911 19.9454 11.5215 20.0072 11.5518C20.6249 11.5822 20.7484 11.4303 20.5014 11.0049Z" fill="url(#paint0_radial_2001_4835)"/>
<defs>
<radialGradient id="paint0_radial_2001_4835" cx="0" cy="0" r="1" gradientUnits="userSpaceOnUse" gradientTransform="translate(25.761 18.3456) scale(17.9101 17.6194)">
<stop stop-color="#0098DD"/>
<stop offset="1" stop-color="#093B74"/>
</radialGradient>
</defs>
</svg>
