<svg width="147" height="60" viewBox="0 0 147 60" fill="none" xmlns="http://www.w3.org/2000/svg">
<g clip-path="url(#clip0_395_6505)">
<path d="M42.6002 3.99581C37.9245 1.24987 32.6836 -0.0942037 27.0753 0.00614606C21.3341 0.103455 16.0161 1.85501 11.2663 5.21521C7.12485 8.19833 4.03964 12.0299 2.09401 16.6095C0.259562 20.9884 -0.361186 25.0753 0.200884 29.0984C0.864869 34.0034 2.79815 38.4249 5.94512 42.2412C7.82281 44.5097 10.1082 46.5745 12.9154 48.5511C13.7276 50.1476 14.9938 51.1206 15.9574 51.7319C15.979 52.0785 16.0531 52.4282 16.1798 52.7688C16.5318 53.7237 17.2174 54.4535 18.1161 54.8457C18.5824 55.9222 19.5429 56.7007 20.6948 56.944C20.8215 57.1751 20.9759 57.394 21.1519 57.5917C21.8777 58.4158 22.9431 58.8689 24.0549 58.8232C24.4101 59.2186 24.8641 59.5318 25.3736 59.7325C25.3983 59.7416 25.4199 59.7507 25.4416 59.7568C25.8863 59.9149 26.3372 59.997 26.785 59.997C27.4737 59.997 28.1376 59.8024 28.7244 59.4345C29.7652 59.9028 30.8399 59.8967 31.8096 59.4557C31.8158 59.4557 31.8405 59.4405 31.8467 59.4375C32.5045 59.1243 33.0203 58.6894 33.3754 58.139C34.0425 58.1056 34.6725 57.8836 35.2531 57.4761C35.5959 57.2389 36.1858 56.7341 36.5255 55.9253C37.032 55.7945 37.5075 55.5512 37.9306 55.2015C38.5236 54.7271 38.9343 54.1159 39.1258 53.4226C40.0276 53.009 40.7132 52.2549 41.0282 51.3244C41.0282 51.3213 41.0375 51.3001 41.0375 51.294C41.266 50.5885 41.2815 49.8678 41.0838 49.1866C41.3834 48.9798 41.6675 48.767 41.9454 48.5572C44.7373 46.5046 47.2604 44.0597 49.45 41.2924C51.8496 38.2515 53.5019 35.2745 54.5025 32.1971C55.605 28.8126 55.7594 25.0844 54.9626 21.113C53.4895 13.7328 49.3296 7.9733 42.6002 3.98973V3.99581Z" fill="white"/>
<path d="M146.901 47.1066L145.326 42.3324C145.243 42.08 145.107 41.858 144.943 41.6664C145.635 41.6634 146.287 41.3015 146.645 40.7207C147.006 40.1369 147.034 39.3949 146.716 38.7867C146.419 38.2181 145.823 35.9678 145.341 34.1524C145.104 33.2583 144.86 32.3339 144.61 31.4399C144.248 30.1749 143.634 28.3777 142.371 26.9394C144.458 25.0631 145.885 22.2898 145.885 20.0456C145.885 16.9986 144.736 14.4869 142.565 12.784C139.588 10.4455 134.412 10.1931 132.327 10.1931C129.125 10.1931 125.962 10.4151 123.655 10.7983C122.911 10.9229 122.306 11.4399 122.077 12.1454C121.979 12.4495 121.957 12.7748 122.012 13.0911V39.7172C122.012 40.1946 122.185 40.6356 122.476 40.9792C122.155 40.9214 121.796 40.9032 121.364 40.9032C121.117 40.9032 120.873 40.9275 120.632 40.9701C120.966 40.5869 121.142 40.0852 121.114 39.5804L119.631 12.2427C119.576 11.1936 118.693 10.3725 117.627 10.3725H109.412C108.535 10.3725 107.766 10.926 107.501 11.7501L104.57 20.8302C104.57 20.8302 104.557 20.8667 104.557 20.8728C104.347 21.5661 104.125 22.3172 103.9 23.123C103.717 22.4267 103.523 21.712 103.322 20.9822C103.322 20.9822 103.313 20.9488 103.31 20.9457L100.592 11.823C100.342 10.9868 99.5513 10.4029 98.6649 10.4029H90.2956C89.2394 10.4029 88.3593 11.2149 88.2913 12.2518L86.9201 33.1762C86.5526 32.784 86.0276 32.5407 85.447 32.5407H76.3983V12.3826C76.3983 11.2939 75.4965 10.406 74.3909 10.406H68.4706C68.3533 10.3847 68.2359 10.3756 68.1217 10.3756C67.016 10.3756 66.1143 11.2635 66.1143 12.3522V39.6898C66.1143 40.3953 66.491 41.0126 67.0562 41.3623C66.4879 41.7151 66.1143 42.3385 66.1143 43.0257V43.0592V47.7756C66.1143 48.8642 67.016 49.7522 68.1217 49.7522H68.9864C70.092 49.7522 70.9938 48.8642 70.9938 47.7756V47.73C71.0154 47.7239 71.0339 47.7148 71.0555 47.7057V47.7421C71.0555 48.8308 71.9573 49.7187 73.0629 49.7187H73.9585C74.6843 49.7187 75.3205 49.3386 75.6725 48.77C76.0246 49.3386 76.6608 49.7187 77.3866 49.7187H80.2587C80.3699 49.7187 80.481 49.7096 80.5984 49.6883C80.7157 49.7096 80.8269 49.7187 80.9381 49.7187H81.8337C82.0036 49.7187 82.1703 49.6944 82.3433 49.6488C82.5162 49.6944 82.6861 49.7187 82.8528 49.7187H83.6867C84.0542 49.7187 84.4124 49.6214 84.7213 49.4359C85.0301 49.6184 85.3883 49.7187 85.7558 49.7187H86.6823C87.0251 49.7187 87.3587 49.6305 87.6551 49.4663C87.9516 49.6336 88.2852 49.7187 88.628 49.7187H89.5236C89.7181 49.7187 89.9127 49.6883 90.1042 49.6306C90.2586 49.667 90.4161 49.6883 90.5736 49.6883H91.5001C91.9263 49.6883 92.3339 49.5545 92.6736 49.3143C93.0133 49.5545 93.421 49.6883 93.8472 49.6883H94.8046C94.9219 49.6883 95.0362 49.6792 95.1535 49.6579C95.623 49.7917 96.1511 49.81 96.6575 49.81C97.7817 49.81 98.5754 49.4542 99.1127 49.0558C99.1251 49.068 99.1375 49.0801 99.1467 49.0923C99.5235 49.4876 100.058 49.7157 100.611 49.7157H101.444C101.701 49.7157 101.957 49.667 102.195 49.5728C102.38 49.6275 102.575 49.6549 102.772 49.6549H103.452C103.668 49.6549 103.878 49.6214 104.082 49.5545C104.332 49.661 104.601 49.7157 104.872 49.7157H105.737C105.858 49.7157 105.978 49.7035 106.108 49.6792C106.16 49.6822 106.21 49.6853 106.262 49.6853H107.189C107.615 49.6853 108.022 49.5515 108.362 49.3113C108.702 49.5515 109.11 49.6853 109.536 49.6853H110.493C110.583 49.6853 110.675 49.6792 110.774 49.664C110.925 49.7005 111.064 49.7157 111.203 49.7157H112.099C112.46 49.7157 112.812 49.6214 113.118 49.442C113.424 49.6214 113.776 49.7157 114.137 49.7157H115.033C115.194 49.7157 115.357 49.6944 115.527 49.6488C115.697 49.6944 115.861 49.7157 116.021 49.7157H118.955C119.1 49.7157 119.252 49.6974 119.409 49.6579C119.875 49.7856 120.4 49.8069 120.901 49.8069C121.432 49.8069 121.932 49.7248 122.392 49.5606C122.618 49.6427 122.856 49.6853 123.093 49.6853H124.02C124.446 49.6853 124.854 49.5515 125.193 49.3113C125.533 49.5515 125.941 49.6853 126.367 49.6853H127.324C127.707 49.6853 128.078 49.5789 128.396 49.3782C128.723 49.5971 129.112 49.7157 129.517 49.7157H130.382C130.666 49.7157 130.944 49.6579 131.2 49.5454C131.457 49.6579 131.734 49.7157 132.019 49.7157H132.914C133.025 49.7157 133.14 49.7035 133.26 49.6822C133.279 49.6822 133.297 49.6822 133.316 49.6822H134.242C134.668 49.6822 135.076 49.5484 135.416 49.3082C135.755 49.5484 136.163 49.6822 136.589 49.6822H137.547C137.723 49.6822 137.896 49.661 138.065 49.6153C138.266 49.6792 138.476 49.7127 138.689 49.7127H139.585C139.801 49.7127 140.014 49.6792 140.221 49.6093C140.397 49.6579 140.576 49.6822 140.758 49.6822H141.685C142.111 49.6822 142.519 49.5484 142.859 49.3082C143.198 49.5484 143.606 49.6822 144.032 49.6822H144.989C145.629 49.6822 146.237 49.3782 146.614 48.8673C146.991 48.3564 147.096 47.6935 146.898 47.0944L146.901 47.1066ZM86.9634 41.0187C86.9634 41.0187 86.9418 41.0187 86.9294 41.0187C86.9387 41.0066 86.951 40.9974 86.9634 40.9853C86.9726 40.9974 86.985 41.0066 86.9943 41.0187C86.985 41.0187 86.9757 41.0187 86.9634 41.0187ZM94.749 41.6543C94.749 41.6543 94.7459 41.6512 94.7428 41.6482C94.749 41.6482 94.7552 41.6451 94.7644 41.6421C94.7582 41.6451 94.7551 41.6482 94.749 41.6512V41.6543ZM99.5235 41.56C99.4432 41.4992 99.3598 41.4444 99.2733 41.3958C98.6649 40.9822 98.0689 40.9032 97.127 40.9032C96.6267 40.9032 96.1387 40.9944 95.6909 41.1586C96.0584 40.8211 96.2931 40.3467 96.3209 39.8176L96.7224 31.9082L98.9614 39.7963C99.1405 40.4257 99.6223 40.9123 100.225 41.1252C99.9651 41.2225 99.7242 41.3684 99.5266 41.563L99.5235 41.56ZM103.208 41.3289C103.155 41.2954 103.103 41.2681 103.047 41.2407H103.365C103.313 41.2681 103.257 41.2954 103.205 41.3289H103.208ZM111.207 40.9974C110.799 40.9974 110.413 41.116 110.085 41.338C109.749 41.0978 109.341 40.967 108.921 40.967H107.809C107.374 40.967 106.957 41.1069 106.611 41.3593C106.503 41.2833 106.389 41.2255 106.268 41.1708C106.929 41.0035 107.473 40.52 107.683 39.8541L110.641 30.5884L111.021 39.7659C111.04 40.2372 111.225 40.6629 111.522 40.9944H111.207V40.9974ZM132.269 22.5392V18.7776C132.513 18.7715 132.778 18.7685 133.056 18.7685C135.394 18.7958 135.666 19.8236 135.666 20.593C135.666 22.2016 134.054 22.5392 132.701 22.5392H132.269ZM127.303 41.6968H128.041C127.874 41.8732 127.741 42.08 127.649 42.3081C127.571 42.08 127.448 41.8763 127.3 41.6968H127.303ZM135.975 40.967H134.863C134.282 40.967 133.739 41.2164 133.365 41.633C132.84 41.2863 132.225 41.1191 131.722 41.037C132.043 40.6873 132.238 40.225 132.238 39.7172V30.9625C133.448 30.9838 134.032 31.1054 134.637 33.7814C135.215 36.2019 136.046 39.3553 136.741 40.6234C136.818 40.7633 136.91 40.888 137.015 41.0035C136.88 41.0126 136.744 41.0309 136.608 41.0674C136.401 40.9974 136.188 40.964 135.975 40.964V40.967Z" fill="white"/>
</g>
<path d="M24.8495 39.4982C24.5098 39.6501 24.17 39.7413 23.8921 40.0148C23.7376 40.1667 23.5832 40.3186 23.4906 40.5009C23.0273 41.5643 22.2243 42.3847 21.3904 43.205C20.7727 43.7823 20.6183 44.6027 20.958 45.3319C21.2977 46.0611 22.0081 46.4865 22.8111 46.4865C23.2744 46.4561 23.6759 46.3042 24.0156 46.0003C24.9113 45.18 25.7143 44.2988 26.3628 43.2962C26.4864 43.1139 26.6408 43.0227 26.857 42.962C28.3086 42.6885 28.2777 42.6885 29.5131 43.4481C32.4472 45.2103 35.3812 46.9726 38.3153 48.7045C39.0565 49.1298 39.3654 49.9198 39.1183 50.6794C38.8712 51.4086 38.1609 51.834 37.327 51.7732C37.2652 51.7732 37.2034 51.7732 37.1108 51.7428C37.3579 52.5024 37.2652 53.1708 36.6475 53.657C36.0298 54.1735 35.3503 54.1431 34.6091 53.7178C34.918 54.5989 34.8253 55.3281 34.0841 55.8446C33.3428 56.3611 32.6016 56.1788 31.8604 55.6015C32.0457 56.5434 31.7986 57.2422 30.9647 57.6372C30.1617 58.0018 29.4822 57.6676 28.8336 57.1815C29.1734 56.8776 29.4822 56.5434 29.6366 56.1181C29.9146 55.2369 29.544 54.3254 28.7101 53.8697C28.4939 53.7481 28.4321 53.6874 28.4939 53.4139C28.7101 52.6847 28.5248 52.0467 27.9689 51.5301C27.4129 51.0136 26.7335 50.8617 25.9922 51.1351C25.776 51.2263 25.6834 51.1959 25.5907 50.9528C25.0966 49.7375 23.645 49.3425 22.5949 50.1325C22.564 50.1325 22.564 50.1629 22.5331 50.1933C22.3169 50.3452 22.1007 50.6186 21.8845 50.649C21.6375 50.6794 21.6066 50.2844 21.4522 50.1021C20.8036 49.3425 19.5991 49.221 18.8269 49.8287C18.5799 50.011 18.3637 50.2236 18.1475 50.4363C18.0239 50.5579 17.9622 50.5882 17.7769 50.4971C16.4179 49.7375 15.2134 48.8564 14.5648 47.3676C14.4722 47.1853 14.2869 47.0941 14.1324 46.9726C11.6617 45.2407 9.40706 43.2962 7.4922 40.987C4.55814 37.4321 2.7977 33.3911 2.18 28.8336C1.62407 24.8533 2.39619 21.0554 3.94044 17.379C5.76264 13.0949 8.63494 9.57039 12.4338 6.83587C16.8194 3.73674 21.6992 2.09603 27.1041 2.00488C32.2619 1.91373 37.1108 3.09869 41.5582 5.71167C47.6734 9.32732 51.5958 14.5533 52.9856 21.5111C53.6651 24.8837 53.6651 28.2867 52.5841 31.5985C51.5649 34.728 49.8971 37.4929 47.8587 40.0755C45.7894 42.6885 43.4113 44.9977 40.7243 46.9726C40.0757 47.4587 39.4271 47.9449 38.6859 48.2791C38.4697 48.3702 38.3462 48.3399 38.1609 48.2487C35.0106 46.3649 31.8912 44.4811 28.741 42.5974C28.5248 42.4758 28.3086 42.4151 28.0306 42.4758C27.5674 42.567 27.0732 42.6581 26.6099 42.7189C26.4246 42.7493 26.3011 42.8404 26.2084 42.9923C25.5598 44.0254 24.7568 44.9369 23.8612 45.7573C23.1817 46.3649 22.1625 46.3345 21.5448 45.7269C20.8962 45.0888 20.9271 44.0862 21.5757 43.4481C22.1625 42.8708 22.7493 42.2935 23.2126 41.6251C23.3361 41.4428 23.4906 41.2301 23.5523 41.0174C23.7994 40.349 24.2936 39.9844 24.973 39.8021C26.4864 39.3767 28.0306 39.1336 29.6058 39.0425C30.4396 39.0121 31.2735 39.164 32.1074 39.2552C33.0957 39.3767 34.1149 39.3767 35.1033 39.6805C35.2268 39.7109 35.3503 39.6805 35.443 39.5894C39.4889 36.6422 43.0098 33.2088 45.357 28.7424C46.5307 26.5244 47.3028 24.1849 47.519 21.6631C48.0131 16.1029 46.1292 11.3934 41.9906 7.56507C39.0565 4.83055 35.5048 3.2506 31.5206 2.67332C26.2393 1.91373 21.236 2.76447 16.6032 5.40784C13.3912 7.23085 10.8895 9.75269 9.28352 13.0645C8.2952 15.0698 7.77016 17.1663 7.70839 19.3843C7.58485 23.4253 8.88202 27.0713 11.044 30.4439C13.2059 33.8773 16.0473 36.7029 19.1976 39.2552C19.352 39.3767 19.5064 39.3767 19.7226 39.3767H24.8186C24.8495 39.4375 24.8495 39.4678 24.8495 39.4982Z" fill="#E40215"/>
<path d="M25.1585 56.3611C23.6451 57.5157 22.0391 56.3612 22.2553 54.8724C22.0391 54.9331 21.792 54.9939 21.5758 55.0243C20.6493 55.085 19.8771 54.4166 19.8154 53.4747C19.8154 53.262 19.7536 53.2013 19.5374 53.1709C18.8271 53.1101 18.302 52.7455 18.0549 52.0771C17.8079 51.4086 17.9932 50.8313 18.5182 50.3452C18.9506 49.9198 19.4139 49.616 20.0316 49.6464C20.711 49.6768 21.2978 50.1021 21.4832 50.7402C21.514 50.8617 21.5449 50.9833 21.6067 51.1352C21.9773 50.8617 22.2862 50.6187 22.6259 50.3452C23.7686 49.4641 25.1585 49.9806 25.4055 51.4086C25.4055 51.4694 25.3746 51.5605 25.4673 51.6213C25.9306 51.2871 26.4247 51.0744 27.0115 51.2567C28.0616 51.5605 28.5558 52.624 28.0307 53.5962C27.9072 53.8393 27.969 53.8393 28.1852 53.9305C29.4206 54.3254 29.7912 55.7535 28.8646 56.665C28.5867 56.9384 28.2778 57.2119 27.969 57.4853C27.4439 58.0019 26.7954 58.1234 26.1159 57.8803C25.4982 57.6373 25.1585 57.1207 25.1585 56.3611Z" fill="#E40215"/>
<path d="M27.8143 37.7664C20.0931 37.7664 13.1749 33.1177 10.735 26.008C8.41859 19.2932 9.87017 13.2469 14.8426 8.14241C17.684 5.1952 21.2667 3.5241 25.3744 3.06835C31.1498 2.39991 36.215 3.97986 40.4153 7.96011C45.9128 13.1253 47.4262 20.9947 44.1524 27.7094C41.6198 32.9354 37.3268 36.1257 31.6131 37.4018C30.3468 37.6753 29.0806 37.7968 27.8143 37.7664ZM18.6724 16.2852C18.765 16.4371 18.8886 16.5587 18.9812 16.7106C19.3827 17.2879 19.6916 17.9259 20.0313 18.564C20.1857 18.8374 20.371 19.1413 20.7725 19.0501C21.6373 18.807 22.533 18.6247 23.336 18.169C23.9537 17.8348 24.0463 17.1056 23.5831 16.589C23.3669 16.346 23.0889 16.2548 22.8109 16.4371C22.5021 16.6194 22.2859 16.5283 22.0388 16.346C21.7608 16.1333 21.5755 15.8295 21.452 15.5256C21.4211 15.4041 21.3902 15.2826 21.4829 15.1914C21.5755 15.1003 21.6991 15.161 21.7917 15.1914C22.1315 15.3433 22.4094 15.5256 22.6874 15.7687C23.2742 16.3156 23.9846 16.5283 24.7876 16.4979C25.3435 16.4675 25.7141 16.6802 25.9612 17.136C26.023 17.2271 26.1156 17.3486 26.1774 17.4398C26.3318 17.7132 26.5171 17.8348 26.826 17.6525C27.073 17.5309 27.1966 17.6525 27.3201 17.8652C27.4745 18.1082 27.4128 18.3513 27.351 18.5944C27.2584 18.959 27.2892 19.3236 27.4745 19.6578C27.6599 19.992 27.9069 20.3262 28.1849 20.5997C28.6173 21.0251 28.9261 20.9643 29.0806 20.3566C29.1114 20.2047 29.1423 20.0528 29.2041 19.9009C29.3276 19.354 29.6365 18.9286 30.0998 18.6247C30.3777 18.4121 30.6557 18.2298 30.9028 18.0171C31.119 17.8348 31.3969 17.5613 31.7367 17.7132C32.1073 17.8955 32.2926 18.2298 32.3235 18.6247V18.807C32.3852 19.1717 32.3544 19.6274 32.8176 19.7793C33.6515 20.0832 34.3619 20.6301 35.1958 20.9339C35.7517 21.1466 36.215 20.8428 36.2767 20.2655C36.3076 19.9312 36.215 19.6578 36.0297 19.354C35.7208 18.8982 35.7826 18.6855 36.3385 18.5032C36.7709 18.3513 37.2033 18.3209 37.6357 18.2298C38.1916 18.1082 38.5931 17.774 38.6858 17.1967C38.7475 16.8321 38.5931 16.5283 38.4696 16.2244C38.2225 15.7079 37.9136 15.2522 37.7283 14.7356C37.5121 14.1584 37.7592 13.8545 38.3769 13.9761C38.6549 14.0368 38.9019 14.1887 39.0873 14.4318C39.2417 14.6141 39.3035 14.8572 39.3652 15.0699C39.427 15.2218 39.4888 15.4041 39.6741 15.3737C39.8903 15.3433 39.9211 15.161 39.9211 14.9787C39.952 14.6445 39.7667 14.3407 39.6123 14.0672C39.3034 13.5507 39.3035 13.2772 39.7358 12.8519C40.3535 12.2442 40.508 11.91 39.6432 11.0896C39.427 10.8769 39.2108 10.6642 38.9946 10.4516C38.8711 10.33 38.7784 10.1781 38.6858 9.99581C38.5004 9.60082 38.5931 9.35775 39.0255 9.20583C39.3034 9.11468 39.5814 9.02353 39.8594 8.93238C39.8285 8.78046 39.705 8.75008 39.6432 8.68931C38.7475 7.89934 37.7592 7.20052 36.6782 6.62323C35.4737 5.98517 34.2383 5.34712 32.8176 5.28635C32.4161 5.25597 32.0146 5.13443 31.644 5.0129C30.7792 4.73945 29.8836 4.49638 28.9879 4.46599C27.9687 4.31408 27.0422 4.46599 26.3627 5.28635C26.3009 5.34712 26.2083 5.40789 26.1465 5.49904C26.023 5.62057 25.9303 5.5598 25.8377 5.43827C25.5597 5.04328 25.4361 5.0129 24.942 5.13443C24.6331 5.22558 24.3552 5.3775 24.0772 5.5598C23.861 5.71172 23.6139 5.83326 23.336 5.86364C22.8727 5.92441 22.5021 6.16747 22.1315 6.41054C21.6682 6.71438 21.2049 7.0486 20.7416 7.38282C20.5872 7.47397 20.4328 7.56512 20.3093 7.62589C20.2166 7.68665 20.0931 7.71704 20.0004 7.62589C19.9078 7.53474 19.9386 7.4132 19.9695 7.32205C20.0313 7.20052 20.0931 7.07898 20.1548 6.95745C20.3093 6.62323 20.2475 6.53208 19.8769 6.56246C19.6607 6.59285 19.4445 6.62323 19.2283 6.684C17.8694 7.01822 16.9119 7.99049 15.9545 8.902C15.8927 8.96277 15.8618 9.05392 15.8001 9.14507C15.7383 9.2666 15.6765 9.41852 15.7692 9.57044C15.8618 9.72236 16.0471 9.72236 16.2016 9.72236C16.3869 9.69197 16.5413 9.60082 16.6957 9.47929C17.0046 9.23622 17.2208 8.902 17.4679 8.59816C17.5914 8.41586 17.7458 8.26394 17.9002 8.11202C17.9929 8.02087 18.0855 7.92972 18.24 8.02087C18.3635 8.11202 18.3017 8.23356 18.2709 8.35509C18.1164 8.7197 17.8385 8.93238 17.5296 9.14507C16.8193 9.66159 16.0471 10.0262 15.2441 10.4212C14.6264 10.725 14.1323 11.1808 14.1323 11.9404C14.1323 12.4265 13.9779 12.7911 13.5455 13.0342C13.2366 13.2165 13.0204 13.5203 13.1131 13.8849C13.144 14.0672 13.0822 14.1584 12.9587 14.2799C12.5263 14.7356 12.1865 15.2522 12.1248 15.8902C12.063 16.4675 12.0012 17.0144 11.9395 17.5917C11.8777 18.2601 12.0939 18.8374 12.4027 19.4147C12.5263 19.6274 12.7116 19.7489 12.8969 19.8097C13.144 19.9312 13.4528 19.9616 13.7308 20.0224C14.1941 20.1135 14.5338 20.5085 14.4102 20.9339C14.2558 21.42 14.3485 21.8454 14.5029 22.2708C14.6264 22.5746 14.6264 22.8785 14.5029 23.1519C14.3794 23.4861 14.3794 23.8203 14.5647 24.1546C14.8118 24.6103 15.0588 25.0357 15.275 25.4914C15.6148 26.2814 16.2633 26.7372 17.0046 27.1018C17.2517 27.2233 17.4679 27.2233 17.7149 27.0106C18.0238 26.7068 18.1164 26.3726 18.24 25.9776C18.3326 25.6737 18.3944 25.3395 18.7032 25.1876C19.0121 25.0357 19.1665 24.7926 19.2283 24.4584C19.2901 24.1546 19.3518 23.8203 19.2592 23.5165C18.9812 22.6354 19.4754 22.21 20.1548 21.8758C20.3093 21.815 20.4328 21.6935 20.5563 21.6023C21.0814 21.2377 21.3902 20.7212 21.6064 20.1439C21.7917 19.6578 21.6682 19.5059 21.1431 19.5363C20.7416 19.5666 20.4019 19.5059 20.1239 19.2628C19.1974 18.4728 18.765 17.4398 18.6724 16.2852ZM40.5697 26.0383C40.4771 25.5522 40.4153 25.4611 40.1065 25.4914C39.4579 25.5522 38.8402 25.7345 38.3769 26.1295C37.8827 26.5245 37.4195 26.7675 36.8327 26.8891C36.462 26.9499 36.1532 27.1018 35.9679 27.436C35.659 27.9221 35.3811 28.4386 35.1031 28.9552C35.0105 29.1375 34.8251 29.3805 35.0105 29.5325C35.1649 29.6844 35.412 29.5325 35.5973 29.4413C36.1532 29.2286 36.6474 28.9552 37.2342 28.8336C37.7592 28.7425 38.0372 28.8033 38.346 29.259C38.4696 29.4717 38.5931 29.4717 38.8093 29.3198C39.7358 28.6209 40.5697 27.831 41.4036 26.9802C41.836 26.5245 41.7125 26.0687 41.5889 25.5826C41.5272 25.4003 41.4036 25.3395 41.2183 25.4914C40.9712 25.6737 40.7859 25.856 40.5697 26.0383ZM37.543 25.0661C37.7901 25.0357 38.0063 25.0965 38.0681 24.8534C38.1298 24.6103 37.8827 24.5192 37.6974 24.4888C37.2342 24.3976 36.8018 24.3369 36.3385 24.2457C35.9061 24.1849 35.5046 24.033 35.3193 23.6077C35.0105 22.9696 34.5781 22.4227 34.1148 21.9366C33.9913 21.815 33.8368 21.6935 33.7133 21.572C33.6206 21.4808 33.4971 21.42 33.3736 21.5112C33.25 21.6023 33.2809 21.7239 33.3118 21.8454C33.3427 22.0581 33.4971 22.1796 33.6206 22.3315C33.9604 22.6961 34.1766 23.0911 34.4236 23.5165C34.7016 24.0026 34.9178 24.4888 35.5973 24.6711C36.2458 24.8534 36.9562 24.9142 37.543 25.0661ZM38.2225 22.4227C38.2225 22.2404 38.1607 22.0581 37.9136 21.9669C37.6974 21.8758 37.4812 21.9366 37.3577 22.1189C37.1724 22.3619 36.9562 22.4227 36.6782 22.4835C36.4312 22.5138 36.215 22.6658 36.215 22.9088C36.215 23.3646 36.3694 23.7596 36.74 24.0634C36.9562 24.2457 37.1415 24.2153 37.3268 24.0026C37.543 23.7596 37.7592 23.5165 37.9445 23.2431C38.0989 23.0304 38.2225 22.7873 38.2225 22.4227ZM42.6081 24.3065C42.6081 23.8811 42.3611 23.5773 41.8669 23.5469C41.5272 23.5165 41.2183 23.4254 40.9712 23.1823C40.6933 22.9392 40.4771 22.9696 40.2918 23.2431C40.1065 23.4861 40.1682 23.6988 40.508 23.8507C40.8168 24.0026 41.0639 24.2153 41.2801 24.5192C41.3419 24.6407 41.4963 24.7622 41.6507 24.6711C41.8669 24.5495 42.0522 24.6103 42.2684 24.6711C42.5155 24.7622 42.6081 24.6407 42.6081 24.3065ZM19.6916 26.1599C19.6916 26.4029 19.8151 26.4941 19.9695 26.5549C20.1548 26.646 20.371 26.7068 20.5255 26.5245C20.8961 26.008 21.2358 25.4611 21.3593 24.7926C21.3902 24.6711 21.3593 24.5495 21.2358 24.4888C21.1123 24.428 21.0196 24.4584 20.927 24.5799C20.8652 24.6711 20.7416 24.7015 20.649 24.7318C20.2372 24.8939 19.9798 25.2079 19.8769 25.6737C19.8151 25.8864 19.6607 26.0383 19.6916 26.1599ZM41.7742 14.6141C41.7434 14.3407 41.7125 14.0672 41.558 13.8241C41.4963 13.733 41.4654 13.5507 41.311 13.5811C41.1565 13.6115 41.1874 13.7938 41.2183 13.8849C41.2801 14.4318 41.0639 14.8572 40.6624 15.2218C40.3535 15.4952 40.1682 15.8598 40.23 16.2852C40.23 16.3764 40.2609 16.5283 40.3844 16.5587C40.508 16.589 40.5697 16.4371 40.6006 16.346C40.7859 15.9206 41.0639 15.556 41.4654 15.2826C41.6816 15.1306 41.8051 14.8876 41.7742 14.6141ZM39.8594 21.3289C39.7667 20.5693 39.3652 19.9009 39.0873 19.1717C39.0564 19.0805 38.9328 19.0501 38.8402 19.1413C38.5313 19.3843 38.5004 20.0832 38.7784 20.3566C38.9019 20.4781 39.0255 20.5389 39.149 20.6604C39.4579 20.9339 39.4888 21.0554 39.2417 21.3897C39.1181 21.5416 39.1181 21.7239 39.3034 21.815C39.4888 21.9366 39.6432 21.8758 39.7358 21.6935C39.8285 21.572 39.8594 21.4504 39.8594 21.3289ZM41.9595 11.7581C42.114 11.4238 42.0831 11.1808 41.8978 10.9681C41.6507 10.6642 41.4036 10.3604 41.1565 10.0566C41.0948 9.99581 41.033 9.87427 40.9095 9.96542C41.3727 10.4516 41.6198 11.0896 41.9595 11.7581ZM15.2441 14.6445C15.4603 14.7964 15.6765 14.9179 15.9545 14.9483C16.8502 15.1003 17.684 14.9179 18.5179 14.5533C18.9194 14.371 18.9194 14.2191 18.5488 13.9761C18.1782 13.733 17.7458 13.6115 17.437 13.2772C17.3752 13.2165 17.3443 13.2469 17.2825 13.2772C16.4486 13.5507 16.2016 13.3988 16.0471 12.548C16.0471 12.5176 16.0471 12.4873 16.0163 12.4265C15.9854 12.3353 16.0471 12.153 15.8618 12.1834C15.7383 12.2138 15.7074 12.3353 15.7383 12.4569C15.7692 12.6696 15.831 12.8822 15.8618 13.0949C15.8927 13.2165 15.8618 13.338 15.7074 13.3988C15.553 13.4292 15.4294 13.3684 15.3677 13.2469C15.3059 13.1253 15.275 13.0038 15.2441 12.8822C15.1515 12.6392 14.9662 12.4873 14.6882 12.4569C14.4411 12.4569 14.3485 12.6696 14.2558 12.8519C14.0705 13.2165 13.947 13.5811 13.669 13.9761C14.2867 14.0064 14.8118 14.2799 15.2441 14.6445ZM18.6724 12.4873C19.0121 12.4265 19.3518 12.4873 19.6916 12.4265C20.0622 12.3961 20.124 12.2138 19.9386 11.9404C19.7842 11.7277 19.5989 11.5758 19.4136 11.4542C18.6724 10.9377 17.9002 11.2112 17.684 12.0923C17.6223 12.3353 17.5914 12.5784 17.5296 12.8519C17.9311 12.6696 18.3017 12.5784 18.6724 12.4873ZM22.5021 13.0038C22.3168 12.6696 22.255 12.305 22.2241 11.9404C22.1932 11.7277 22.2241 11.515 22.1932 11.3327C22.1623 11.0896 22.0388 10.9985 21.8226 11.1504C21.6373 11.3023 21.4211 11.4542 21.2667 11.6061C21.0814 11.7884 21.0196 11.9707 21.2049 12.1834C21.3593 12.3353 21.3285 12.5176 21.2667 12.6999C21.0505 13.2469 21.0814 13.3076 21.6373 13.4595C21.7917 13.4899 21.9462 13.5203 22.0079 13.5507C22.6256 13.5811 22.7492 13.4292 22.5021 13.0038Z" fill="url(#paint0_radial_395_6505)"/>
<path d="M68.1191 12.4052H74.3949V34.5336H85.4363V39.7079H68.1191V12.4052Z" fill="#0757A3"/>
<path d="M112.615 29.2651C112.485 25.9563 112.358 22.0186 112.374 18.0171H112.26C111.376 21.5112 110.209 25.3912 109.165 28.6149L105.764 39.2613H100.888L97.8981 28.7121C97.0025 25.4975 96.0821 21.6206 95.3934 18.0201H95.3069C95.171 21.733 95.0135 25.9472 94.8467 29.3471L94.3278 39.7079H88.5215L90.2974 12.4083H98.661L101.366 21.5325C102.244 24.662 103.099 28.0923 103.72 31.2947H103.853C104.612 28.1348 105.551 24.5344 106.493 21.493L109.44 12.4113H117.649L119.138 39.711H113.038L112.605 29.2681L112.615 29.2651Z" fill="#0757A3"/>
<path d="M123.996 12.782C126.01 12.4477 128.996 12.1956 132.335 12.1956C136.452 12.1956 139.337 12.8123 141.316 14.3589C142.972 15.6532 143.886 17.5704 143.886 20.0831C143.886 23.5408 141.372 25.9502 138.988 26.7918V26.9194C140.912 27.6851 141.996 29.496 142.697 32.0026C143.555 35.0926 144.392 38.6506 144.936 39.7079H138.512C138.086 38.9179 137.394 36.7242 136.603 33.3456C135.831 29.9335 134.667 29.022 132.082 28.9886H130.216V39.7079H123.999V12.782H123.996ZM130.213 24.5222H132.672C135.785 24.5222 137.647 22.9605 137.647 20.5875C137.647 18.0869 135.905 16.8108 133.039 16.7956C131.538 16.7956 130.658 16.8929 130.213 17.0022V24.5222Z" fill="#0757A3"/>
<path d="M68.1191 43.0258C68.4403 42.9711 68.8789 42.9286 69.475 42.9286C70.1205 42.9286 70.593 43.0623 70.9019 43.3175C71.1922 43.5515 71.3775 43.9252 71.3775 44.3718C71.3775 44.8184 71.2354 45.1952 70.9636 45.4504C70.6085 45.7968 70.0587 45.9639 69.4317 45.9639C69.265 45.9639 69.1167 45.9548 68.9994 45.9305V47.7292H68.1222V43.0258H68.1191ZM68.9963 45.2469C69.1075 45.2772 69.2495 45.2864 69.4287 45.2864C70.0896 45.2864 70.4942 44.9613 70.4942 44.4052C70.4942 43.8796 70.1205 43.597 69.509 43.597C69.265 43.597 69.0889 43.6183 68.9963 43.6396V45.2469Z" fill="#0757A3"/>
<path d="M73.0668 43.6973H71.6831V42.965H75.3491V43.6973H73.9531V47.7322H73.0668V43.6973Z" fill="#0757A3"/>
<path d="M77.397 42.965H78.2834V47H80.2754V47.7292H77.397V42.965Z" fill="#0757A3"/>
<path d="M81.8229 42.965V47.7292H80.9365V42.965H81.8229Z" fill="#0757A3"/>
<path d="M82.8359 47.7322V42.9681H83.8459L85.0967 45.0129C85.4148 45.5385 85.699 46.0915 85.9213 46.6111L85.9399 46.605C85.8781 45.973 85.8596 45.3593 85.8596 44.6301V42.9681H86.678V47.7322H85.7607L84.4975 45.6358C84.1887 45.1132 83.8675 44.5328 83.6297 43.992L83.6081 43.9981C83.642 44.6179 83.6544 45.2469 83.6544 46.0277V47.7322H82.8359Z" fill="#0757A3"/>
<path d="M88.6239 43.6973H87.2402V42.965H90.9063V43.6973H89.5103V47.7322H88.6239V43.6973Z" fill="#0757A3"/>
<path d="M91.913 46.3832L91.4992 47.7292H90.585L92.1385 42.965H93.2658L94.8409 47.7292H93.8896L93.4511 46.3832H91.913ZM93.3059 45.7269L92.9229 44.5541C92.8303 44.2594 92.75 43.9343 92.6759 43.6578H92.6604C92.5894 43.9373 92.5153 44.2685 92.4288 44.5511L92.0551 45.7269H93.3028H93.3059Z" fill="#0757A3"/>
<path d="M95.4957 46.7812C95.7798 46.9422 96.2153 47.085 96.6662 47.085C97.2314 47.085 97.5464 46.8237 97.5464 46.4348C97.5464 46.0763 97.3024 45.8636 96.6878 45.6448C95.8879 45.3653 95.3752 44.943 95.3752 44.2594C95.3752 43.4785 96.0392 42.8921 97.0893 42.8921C97.6144 42.8921 97.9973 43.0015 98.2506 43.1291L98.0375 43.8309C97.8615 43.7398 97.5248 43.6061 97.0708 43.6061C96.5087 43.6061 96.2709 43.9008 96.2709 44.1804C96.2709 44.545 96.5519 44.7181 97.1974 44.9612C98.0375 45.2772 98.4421 45.6935 98.4421 46.3771C98.4421 47.1428 97.8553 47.8082 96.6044 47.8082C96.0917 47.8082 95.5605 47.6654 95.2949 47.5043L95.4895 46.7842L95.4957 46.7812Z" fill="#0757A3"/>
<path d="M104.82 45.7877C104.792 45.1709 104.758 44.4326 104.761 43.7823H104.743C104.582 44.3657 104.381 45.0098 104.171 45.6114L103.461 47.6745H102.781L102.139 45.6418C101.951 45.0311 101.775 44.3839 101.648 43.7823H101.632C101.611 44.4052 101.583 45.1678 101.546 45.815L101.438 47.7292H100.613L100.934 42.965H102.096L102.726 44.8792C102.899 45.4413 103.056 46.0064 103.171 46.5381H103.192C103.322 46.0186 103.489 45.4352 103.677 44.8762L104.35 42.965H105.499L105.777 47.7292H104.916L104.823 45.7846L104.82 45.7877Z" fill="#0757A3"/>
<path d="M107.6 46.3832L107.186 47.7292H106.271L107.825 42.965H108.952L110.527 47.7292H109.576L109.138 46.3832H107.6ZM108.992 45.7269L108.609 44.5541C108.517 44.2594 108.437 43.9343 108.362 43.6578H108.347C108.276 43.9373 108.202 44.2685 108.115 44.5511L107.742 45.7269H108.989H108.992Z" fill="#0757A3"/>
<path d="M112.084 42.965V44.8701H114.131V42.965H115.018V47.7292H114.131V45.6266H112.084V47.7292H111.197V42.965H112.084Z" fill="#0757A3"/>
<path d="M118.74 45.6175H116.914V47.0152H118.956V47.7322H116.028V42.9681H118.848V43.6851H116.914V44.9096H118.74V45.6206V45.6175Z" fill="#0757A3"/>
<path d="M119.712 46.7812C119.997 46.9422 120.432 47.085 120.883 47.085C121.448 47.085 121.763 46.8237 121.763 46.4348C121.763 46.0763 121.519 45.8636 120.905 45.6448C120.105 45.3653 119.592 44.943 119.592 44.2594C119.592 43.4785 120.256 42.8921 121.306 42.8921C121.831 42.8921 122.214 43.0015 122.467 43.1291L122.254 43.8309C122.078 43.7398 121.742 43.6061 121.288 43.6061C120.725 43.6061 120.488 43.9008 120.488 44.1804C120.488 44.545 120.769 44.7181 121.414 44.9612C122.254 45.2772 122.659 45.6935 122.659 46.3771C122.659 47.1428 122.072 47.8082 120.821 47.8082C120.309 47.8082 119.777 47.6654 119.512 47.5043L119.706 46.7842L119.712 46.7812Z" fill="#0757A3"/>
<path d="M124.432 46.3832L124.018 47.7292H123.104L124.657 42.965H125.784L127.359 47.7292H126.408L125.97 46.3832H124.432ZM125.824 45.7269L125.442 44.5541C125.349 44.2594 125.269 43.9343 125.194 43.6578H125.179C125.108 43.9373 125.034 44.2685 124.947 44.5511L124.574 45.7269H125.821H125.824Z" fill="#0757A3"/>
<path d="M129.519 43.0319C129.855 42.9711 130.346 42.9286 130.862 42.9286C131.557 42.9286 132.029 43.044 132.357 43.3114C132.622 43.5302 132.774 43.8583 132.774 44.2685C132.774 44.8823 132.351 45.3015 131.894 45.4595V45.4808C132.246 45.6115 132.45 45.9396 132.57 46.4045C132.724 47 132.857 47.5469 132.953 47.7322H132.045C131.971 47.5955 131.853 47.2005 131.718 46.608C131.579 45.9882 131.35 45.7846 130.847 45.7725H130.402V47.7322H129.525V43.0319H129.519ZM130.396 45.1344H130.921C131.52 45.1344 131.891 44.8245 131.891 44.3505C131.891 43.831 131.52 43.5879 130.945 43.5849C130.664 43.5849 130.485 43.6061 130.396 43.6304V45.1344Z" fill="#0757A3"/>
<path d="M134.627 46.3832L134.213 47.7292H133.299L134.852 42.965H135.98L137.555 47.7292H136.604L136.165 46.3832H134.627ZM136.02 45.7269L135.637 44.5541C135.544 44.2594 135.464 43.9343 135.39 43.6578H135.374C135.303 43.9373 135.229 44.2685 135.143 44.5511L134.769 45.7269H136.017H136.02Z" fill="#0757A3"/>
<path d="M138.697 47.7323V45.7482L137.166 42.9651H138.179L138.756 44.1865C138.92 44.5359 139.046 44.8063 139.179 45.1314H139.195C139.315 44.8276 139.454 44.5329 139.615 44.1835L140.198 42.962H141.196L139.587 45.7209V47.7292H138.7L138.697 47.7323Z" fill="#0757A3"/>
<path d="M142.073 46.3832L141.659 47.7292H140.745L142.299 42.965H143.426L145.001 47.7292H144.05L143.611 46.3832H142.073ZM143.466 45.7269L143.083 44.5541C142.99 44.2594 142.91 43.9343 142.836 43.6578H142.821C142.75 43.9373 142.675 44.2685 142.589 44.5511L142.215 45.7269H143.463H143.466Z" fill="#0757A3"/>
<defs>
<radialGradient id="paint0_radial_395_6505" cx="0" cy="0" r="1" gradientUnits="userSpaceOnUse" gradientTransform="translate(27.7618 20.3445) scale(17.9101 17.6194)">
<stop stop-color="#0098DD"/>
<stop offset="1" stop-color="#093B74"/>
</radialGradient>
<clipPath id="clip0_395_6505">
<rect width="147" height="60" fill="white"/>
</clipPath>
</defs>
</svg>
