<svg width="84" height="33" viewBox="0 0 84 33" fill="none" xmlns="http://www.w3.org/2000/svg">
<path d="M13.4211 22.0276C13.2215 22.1169 13.022 22.1704 12.8587 22.331C12.768 22.4203 12.6773 22.5095 12.6228 22.6166C12.3507 23.2413 11.879 23.7231 11.3892 24.205C11.0263 24.5441 10.9356 25.026 11.1352 25.4544C11.3348 25.8827 11.752 26.1326 12.2237 26.1326C12.4958 26.1147 12.7317 26.0255 12.9313 25.847C13.4574 25.3651 13.9291 24.8476 14.3101 24.2586C14.3826 24.1515 14.4733 24.098 14.6003 24.0623C15.453 23.9016 15.4349 23.9016 16.1606 24.3478C17.8841 25.383 19.6076 26.4182 21.3311 27.4355C21.7665 27.6853 21.9479 28.1494 21.8028 28.5956C21.6576 29.0239 21.2404 29.2738 20.7505 29.2381C20.7142 29.2381 20.678 29.2381 20.6235 29.2202C20.7687 29.6664 20.7142 30.0591 20.3514 30.3447C19.9886 30.6481 19.5894 30.6302 19.154 30.3803C19.3354 30.8979 19.281 31.3263 18.8456 31.6297C18.4102 31.9331 17.9748 31.826 17.5394 31.4869C17.6482 32.0402 17.5031 32.4507 17.0132 32.6827C16.5416 32.8969 16.1424 32.7005 15.7614 32.415C15.961 32.2365 16.1424 32.0402 16.2331 31.7903C16.3964 31.2727 16.1787 30.7373 15.6889 30.4696C15.5619 30.3982 15.5256 30.3625 15.5619 30.2019C15.6889 29.7735 15.58 29.3987 15.2535 29.0953C14.9269 28.7919 14.5278 28.7027 14.0924 28.8633C13.9654 28.9168 13.9109 28.899 13.8565 28.7562C13.5662 28.0423 12.7136 27.8103 12.0967 28.2743C12.0786 28.2743 12.0786 28.2922 12.0604 28.31C11.9334 28.3992 11.8064 28.5599 11.6795 28.5777C11.5343 28.5956 11.5162 28.3636 11.4255 28.2565C11.0445 27.8103 10.3369 27.7389 9.88338 28.0958C9.73824 28.2029 9.61125 28.3279 9.48425 28.4528C9.41168 28.5242 9.3754 28.542 9.26655 28.4885C8.46829 28.0423 7.76075 27.5247 7.37976 26.6502C7.32534 26.5431 7.21648 26.4895 7.12577 26.4182C5.6744 25.4008 4.35002 24.2586 3.22521 22.9022C1.5017 20.814 0.467601 18.4402 0.104758 15.7631C-0.221801 13.425 0.231753 11.1941 1.13886 9.03449C2.20925 6.51796 3.89647 4.44763 6.12795 2.84133C8.70414 1.02087 11.5706 0.0570922 14.7455 0.00354907C17.7752 -0.0499941 20.6235 0.646067 23.236 2.18097C26.8282 4.30485 29.1322 7.37465 29.9486 11.4618C30.3477 13.4429 30.3477 15.4418 29.7128 17.3872C29.1141 19.2255 28.1344 20.8497 26.937 22.3667C25.7215 23.9016 24.3245 25.2581 22.7462 26.4182C22.3652 26.7037 21.9842 26.9893 21.5488 27.1856C21.4218 27.2392 21.3492 27.2213 21.2404 27.1678C19.3899 26.0612 17.5575 24.9546 15.707 23.8481C15.58 23.7767 15.453 23.741 15.2897 23.7767C15.0176 23.8302 14.7273 23.8838 14.4552 23.9195C14.3464 23.9373 14.2738 23.9909 14.2194 24.0801C13.8384 24.6869 13.3667 25.2224 12.8406 25.7042C12.4414 26.0612 11.8427 26.0434 11.4799 25.6864C11.0989 25.3116 11.117 24.7226 11.498 24.3478C11.8427 24.0087 12.1874 23.6696 12.4596 23.277C12.5321 23.1699 12.6228 23.0449 12.6591 22.92C12.8043 22.5274 13.0945 22.3132 13.4937 22.2061C14.3826 21.9562 15.2897 21.8134 16.215 21.7599C16.7048 21.7421 17.1947 21.8313 17.6845 21.8848C18.2651 21.9562 18.8637 21.9562 19.4443 22.1347C19.5169 22.1526 19.5894 22.1347 19.6439 22.0812C22.0205 20.3499 24.0887 18.3331 25.4675 15.7095C26.1569 14.4066 26.6104 13.0324 26.7374 11.551C27.0277 8.28489 25.921 5.51849 23.49 3.26968C21.7665 1.66339 19.6801 0.735305 17.3398 0.396199C14.2375 -0.0499941 11.2985 0.449742 8.57714 2.00249C6.69036 3.07335 5.22085 4.55471 4.27745 6.50011C3.6969 7.67806 3.38849 8.90955 3.3522 10.2124C3.27964 12.5862 4.04161 14.7279 5.31156 16.709C6.58151 18.7258 8.25059 20.3856 10.1011 21.8848C10.1918 21.9562 10.2825 21.9562 10.4095 21.9562H13.403C13.4211 21.9919 13.4211 22.0098 13.4211 22.0276Z" fill="white"/>
<path d="M13.6024 31.9331C12.7135 32.6113 11.7701 31.9331 11.8971 31.0586C11.7701 31.0943 11.6249 31.13 11.498 31.1478C10.9537 31.1835 10.5001 30.7909 10.4638 30.2376C10.4638 30.1126 10.4276 30.077 10.3006 30.0591C9.8833 30.0234 9.57488 29.8092 9.42974 29.4166C9.28461 29.0239 9.39346 28.6848 9.70188 28.3993C9.95587 28.1494 10.228 27.9709 10.5908 27.9888C10.99 28.0066 11.3347 28.2565 11.4435 28.6313C11.4617 28.7027 11.4798 28.7741 11.5161 28.8633C11.7338 28.7027 11.9152 28.5599 12.1148 28.3993C12.786 27.8817 13.6024 28.1851 13.7476 29.0239C13.7476 29.0596 13.7294 29.1132 13.7839 29.1489C14.056 28.9525 14.3463 28.8276 14.691 28.9347C15.3078 29.1132 15.5981 29.7378 15.2897 30.309C15.2171 30.4518 15.2534 30.4518 15.3804 30.5053C16.1061 30.7373 16.3238 31.5762 15.7795 32.1116C15.6162 32.2722 15.4348 32.4329 15.2534 32.5935C14.945 32.8969 14.564 32.9683 14.1648 32.8255C13.802 32.6827 13.6024 32.3793 13.6024 31.9331Z" fill="white"/>
<path d="M15.1633 21.0103C10.6277 21.0103 6.56389 18.2796 5.13066 14.1033C3.77 10.1589 4.62268 6.60722 7.54356 3.60881C9.21264 1.87758 11.3171 0.895954 13.73 0.628239C17.1226 0.235589 20.0979 1.16367 22.5653 3.50172C25.7946 6.53583 26.6835 11.1584 24.7605 15.1027C23.2728 18.1725 20.7511 20.0465 17.3948 20.7961C16.6509 20.9568 15.9071 21.0282 15.1633 21.0103ZM9.79319 8.39199C9.84762 8.48123 9.92019 8.55262 9.97461 8.64186C10.2105 8.98096 10.3919 9.35577 10.5914 9.73057C10.6822 9.8912 10.791 10.0697 11.0269 10.0161C11.5348 9.87335 12.061 9.76626 12.5327 9.49855C12.8955 9.30222 12.9499 8.87388 12.6778 8.57047C12.5508 8.42769 12.3875 8.37414 12.2242 8.48123C12.0428 8.58832 11.9158 8.53477 11.7707 8.42769C11.6074 8.30275 11.4986 8.12427 11.426 7.9458C11.4078 7.87441 11.3897 7.80302 11.4441 7.74947C11.4986 7.69593 11.5711 7.73162 11.6256 7.74947C11.8251 7.83871 11.9884 7.9458 12.1517 8.08858C12.4964 8.40984 12.9136 8.53477 13.3853 8.51692C13.7119 8.49908 13.9296 8.62401 14.0747 8.89173C14.111 8.94527 14.1655 9.01666 14.2017 9.0702C14.2924 9.23083 14.4013 9.30222 14.5827 9.19514C14.7279 9.12375 14.8004 9.19514 14.873 9.32007C14.9637 9.46285 14.9274 9.60563 14.8911 9.74842C14.8367 9.96259 14.8549 10.1768 14.9637 10.3731C15.0726 10.5694 15.2177 10.7657 15.381 10.9264C15.635 11.1762 15.8164 11.1405 15.9071 10.7836C15.9252 10.6943 15.9434 10.6051 15.9797 10.5159C16.0522 10.1946 16.2337 9.94474 16.5058 9.76626C16.6691 9.64133 16.8323 9.53424 16.9775 9.40931C17.1045 9.30222 17.2678 9.14159 17.4673 9.23083C17.685 9.33792 17.7939 9.53424 17.812 9.76626V9.87335C17.8483 10.0875 17.8302 10.3552 18.1023 10.4445C18.5921 10.623 19.0094 10.9442 19.4992 11.1227C19.8258 11.2476 20.0979 11.0691 20.1342 10.73C20.1524 10.5337 20.0979 10.3731 19.9891 10.1946C19.8077 9.92689 19.8439 9.80196 20.1705 9.69487C20.4245 9.60563 20.6785 9.58779 20.9325 9.53424C21.259 9.46285 21.4949 9.26653 21.5493 8.92742C21.5856 8.71325 21.4949 8.53477 21.4223 8.35629C21.2772 8.05288 21.0958 7.78517 20.9869 7.48176C20.8599 7.14265 21.005 6.96417 21.3679 7.03556C21.5312 7.07126 21.6763 7.1605 21.7852 7.30328C21.8759 7.41037 21.9122 7.55315 21.9484 7.67808C21.9847 7.76732 22.021 7.87441 22.1299 7.85656C22.2569 7.83871 22.275 7.73163 22.275 7.62454C22.2931 7.42821 22.1843 7.24974 22.0936 7.08911C21.9122 6.7857 21.9122 6.62507 22.1661 6.3752C22.529 6.01825 22.6197 5.82192 22.1117 5.34003C21.9847 5.2151 21.8577 5.09016 21.7307 4.96523C21.6582 4.89384 21.6037 4.8046 21.5493 4.69752C21.4405 4.4655 21.4949 4.32271 21.7489 4.23347C21.9122 4.17993 22.0754 4.12639 22.2387 4.07285C22.2206 3.98361 22.148 3.96576 22.1117 3.93006C21.5856 3.46602 21.005 3.05553 20.3701 2.71642C19.6625 2.34162 18.9368 1.96682 18.1023 1.93112C17.8665 1.91327 17.6306 1.84188 17.4129 1.77049C16.9049 1.60986 16.3788 1.46708 15.8527 1.44923C15.254 1.35999 14.7097 1.44923 14.3106 1.93112C14.2743 1.96682 14.2199 2.00251 14.1836 2.05606C14.111 2.12745 14.0566 2.09175 14.0022 2.02036C13.8389 1.78834 13.7663 1.77049 13.4761 1.84188C13.2946 1.89543 13.1314 1.98466 12.9681 2.09175C12.8411 2.18099 12.6959 2.25238 12.5327 2.27023C12.2605 2.30592 12.0428 2.4487 11.8251 2.59149C11.553 2.76996 11.2808 2.96629 11.0087 3.16261C10.918 3.21616 10.8273 3.2697 10.7547 3.30539C10.7003 3.34109 10.6277 3.35894 10.5733 3.30539C10.5189 3.25185 10.537 3.18046 10.5552 3.12692C10.5914 3.05553 10.6277 2.98414 10.664 2.91274C10.7547 2.71642 10.7184 2.66288 10.5007 2.68072C10.3737 2.69857 10.2467 2.71642 10.1198 2.75212C9.3215 2.94844 8.75909 3.51957 8.19668 4.055C8.1604 4.09069 8.14226 4.14424 8.10597 4.19778C8.06969 4.26917 8.0334 4.35841 8.08783 4.44765C8.14226 4.53689 8.25111 4.53689 8.34182 4.53689C8.45067 4.51904 8.54138 4.4655 8.63209 4.3941C8.81352 4.25132 8.94051 4.055 9.08565 3.87652C9.15822 3.76943 9.24893 3.6802 9.33964 3.59096C9.39406 3.53741 9.44849 3.48387 9.5392 3.53741C9.61177 3.59096 9.57549 3.66235 9.55734 3.73374C9.46663 3.94791 9.30335 4.07285 9.12193 4.19778C8.70466 4.50119 8.25111 4.71536 7.77941 4.94738C7.41657 5.12586 7.12629 5.39358 7.12629 5.83977C7.12629 6.12533 7.03558 6.3395 6.78159 6.48229C6.60017 6.58937 6.47318 6.76785 6.5276 6.98202C6.54575 7.08911 6.50946 7.14265 6.43689 7.21404C6.1829 7.48176 5.98334 7.78517 5.94705 8.15997C5.91077 8.49908 5.87449 8.82034 5.8382 9.15944C5.80192 9.55209 5.92891 9.8912 6.11033 10.2303C6.1829 10.3552 6.29176 10.4266 6.40061 10.4623C6.54575 10.5337 6.72717 10.5516 6.89045 10.5873C7.16258 10.6408 7.36214 10.8728 7.28957 11.1227C7.19886 11.4083 7.25329 11.6581 7.344 11.908C7.41657 12.0865 7.41657 12.2649 7.344 12.4256C7.27143 12.6219 7.27143 12.8182 7.38029 13.0145C7.52542 13.2823 7.67056 13.5321 7.79755 13.7998C7.99712 14.2639 8.3781 14.5316 8.81352 14.7458C8.95865 14.8172 9.08565 14.8172 9.23079 14.6922C9.41221 14.5138 9.46663 14.3174 9.5392 14.0854C9.59363 13.9069 9.62991 13.7106 9.81133 13.6214C9.99276 13.5321 10.0835 13.3893 10.1198 13.193C10.156 13.0145 10.1923 12.8182 10.1379 12.6397C9.97461 12.1222 10.2649 11.8723 10.664 11.676C10.7547 11.6403 10.8273 11.5689 10.8999 11.5153C11.2083 11.3012 11.3897 10.9978 11.5167 10.6586C11.6256 10.3731 11.553 10.2838 11.2446 10.3017C11.0087 10.3195 10.8092 10.2838 10.6459 10.1411C10.1016 9.67702 9.84762 9.0702 9.79319 8.39199ZM22.656 14.1211C22.6016 13.8355 22.5653 13.782 22.3838 13.7998C22.0029 13.8355 21.64 13.9426 21.3679 14.1746C21.0776 14.4067 20.8055 14.5494 20.4608 14.6208C20.2431 14.6565 20.0617 14.7458 19.9528 14.9421C19.7714 15.2277 19.6081 15.5311 19.4448 15.8345C19.3904 15.9416 19.2815 16.0844 19.3904 16.1736C19.4811 16.2628 19.6262 16.1736 19.7351 16.12C20.0617 15.9951 20.3519 15.8345 20.6966 15.7631C21.005 15.7095 21.1683 15.7452 21.3497 16.013C21.4223 16.1379 21.4949 16.1379 21.6219 16.0487C22.1661 15.6382 22.656 15.1741 23.1458 14.6744C23.3998 14.4067 23.3272 14.139 23.2547 13.8534C23.2184 13.7463 23.1458 13.7106 23.037 13.7998C22.8918 13.9069 22.783 14.014 22.656 14.1211ZM20.8781 13.55C21.0232 13.5321 21.1502 13.5678 21.1865 13.425C21.2228 13.2823 21.0776 13.2287 20.9688 13.2109C20.6966 13.1573 20.4426 13.1216 20.1705 13.0681C19.9165 13.0324 19.6807 12.9432 19.5718 12.6933C19.3904 12.3185 19.1364 11.9972 18.8643 11.7117C18.7917 11.6403 18.701 11.5689 18.6284 11.4975C18.574 11.4439 18.5014 11.4083 18.4289 11.4618C18.3563 11.5153 18.3744 11.5867 18.3926 11.6581C18.4107 11.7831 18.5014 11.8544 18.574 11.9437C18.7736 12.1579 18.9006 12.3899 19.0457 12.6397C19.209 12.9253 19.336 13.2109 19.7351 13.318C20.1161 13.425 20.5334 13.4607 20.8781 13.55ZM21.2772 11.9972C21.2772 11.8901 21.2409 11.7831 21.0958 11.7295C20.9688 11.676 20.8418 11.7117 20.7692 11.8187C20.6603 11.9615 20.5333 11.9972 20.3701 12.0329C20.2249 12.0508 20.0979 12.14 20.0979 12.2828C20.0979 12.5505 20.1886 12.7825 20.4064 12.961C20.5334 13.0681 20.6422 13.0502 20.7511 12.9253C20.8781 12.7825 21.005 12.6397 21.1139 12.4791C21.2046 12.3542 21.2772 12.2114 21.2772 11.9972ZM23.8534 13.1038C23.8534 12.8539 23.7082 12.6754 23.418 12.6576C23.2184 12.6397 23.037 12.5862 22.8918 12.4434C22.7286 12.3006 22.6016 12.3185 22.4927 12.4791C22.3839 12.6219 22.4201 12.7468 22.6197 12.8361C22.8011 12.9253 22.9463 13.0502 23.0733 13.2287C23.1095 13.3001 23.2002 13.3715 23.291 13.318C23.418 13.2466 23.5268 13.2823 23.6538 13.318C23.7989 13.3715 23.8534 13.3001 23.8534 13.1038ZM10.3919 14.1925C10.3919 14.3353 10.4645 14.3888 10.5552 14.4245C10.664 14.4781 10.791 14.5138 10.8817 14.4067C11.0994 14.1033 11.299 13.782 11.3716 13.3893C11.3897 13.318 11.3716 13.2466 11.299 13.2109C11.2264 13.1752 11.172 13.193 11.1176 13.2644C11.0813 13.318 11.0087 13.3358 10.9543 13.3537C10.7124 13.4488 10.5612 13.6333 10.5007 13.9069C10.4645 14.0319 10.3737 14.1211 10.3919 14.1925ZM23.3635 7.41037C23.3454 7.24974 23.3272 7.08911 23.2365 6.94633C23.2002 6.89278 23.1821 6.7857 23.0914 6.80354C23.0007 6.82139 23.0188 6.92848 23.037 6.98202C23.0733 7.30328 22.9463 7.55315 22.7104 7.76732C22.529 7.92795 22.4201 8.14212 22.4564 8.39199C22.4564 8.44553 22.4746 8.53477 22.5471 8.55262C22.6197 8.57047 22.656 8.48123 22.6741 8.42769C22.783 8.17782 22.9463 7.96365 23.1821 7.80302C23.3091 7.71378 23.3817 7.571 23.3635 7.41037ZM22.2387 11.3547C22.1843 10.9085 21.9484 10.5159 21.7852 10.0875C21.767 10.034 21.6944 10.0161 21.64 10.0697C21.4586 10.2125 21.4405 10.623 21.6037 10.7836C21.6763 10.855 21.7489 10.8907 21.8214 10.9621C22.0029 11.1227 22.021 11.1941 21.8759 11.3904C21.8033 11.4796 21.8033 11.5867 21.9122 11.6403C22.021 11.7117 22.1117 11.676 22.1661 11.5689C22.2206 11.4975 22.2387 11.4261 22.2387 11.3547ZM23.4724 5.73268C23.5631 5.53636 23.5449 5.39358 23.4361 5.26864C23.291 5.09016 23.1458 4.91169 23.0007 4.73321C22.9644 4.69752 22.9281 4.62612 22.8555 4.67967C23.1277 4.96523 23.2728 5.34003 23.4724 5.73268ZM7.77941 7.42821C7.90641 7.51745 8.0334 7.58884 8.19668 7.60669C8.7228 7.69593 9.21264 7.58884 9.70248 7.37467C9.93833 7.26758 9.93833 7.17835 9.72062 7.03556C9.50292 6.89278 9.24893 6.82139 9.06751 6.62507C9.03122 6.58937 9.01308 6.60722 8.97679 6.62507C8.48696 6.7857 8.34182 6.69646 8.25111 6.19672C8.25111 6.17888 8.25111 6.16103 8.23297 6.12533C8.21482 6.07179 8.25111 5.9647 8.14226 5.98255C8.06969 6.0004 8.05154 6.07179 8.06969 6.14318C8.08783 6.26811 8.12411 6.39305 8.14226 6.51798C8.1604 6.58937 8.14226 6.66076 8.05155 6.69646C7.96083 6.71431 7.88827 6.67861 7.85198 6.60722C7.8157 6.53583 7.79755 6.46444 7.77941 6.39305C7.72499 6.25027 7.61613 6.16103 7.45285 6.14318C7.30772 6.14318 7.25329 6.26811 7.19886 6.3752C7.09001 6.58937 7.01744 6.80354 6.85416 7.03556C7.21701 7.05341 7.52542 7.21404 7.77941 7.42821ZM9.79319 6.16103C9.99276 6.12533 10.1923 6.16103 10.3919 6.12533C10.6096 6.10748 10.6459 6.0004 10.537 5.83977C10.4463 5.71483 10.3375 5.6256 10.2286 5.55421C9.79319 5.25079 9.33964 5.41142 9.21264 5.92901C9.17636 6.07179 9.15822 6.21457 9.12193 6.3752C9.35778 6.26811 9.57549 6.21457 9.79319 6.16103ZM12.0428 6.46444C11.934 6.26811 11.8977 6.05394 11.8795 5.83977C11.8614 5.71483 11.8795 5.5899 11.8614 5.48281C11.8433 5.34003 11.7707 5.28649 11.6437 5.37573C11.5348 5.46497 11.4078 5.55421 11.3171 5.64344C11.2083 5.75053 11.172 5.85762 11.2808 5.98255C11.3716 6.07179 11.3534 6.17888 11.3171 6.28596C11.1901 6.60722 11.2083 6.64292 11.5348 6.73215C11.6256 6.75 11.7163 6.76785 11.7525 6.7857C12.1154 6.80354 12.188 6.71431 12.0428 6.46444Z" fill="white"/>
<path d="M38.8389 6.11284H42.5254V19.1113H49.0112V22.1508H38.8389V6.11284Z" fill="white"/>
<path d="M64.9759 16.0165C64.8997 14.0729 64.8254 11.7599 64.8344 9.40931H64.7673C64.2484 11.4618 63.5627 13.7409 62.9495 15.6346L60.952 21.8884H58.0874L56.3312 15.6917C55.8051 13.8034 55.2644 11.526 54.8599 9.41109H54.8091C54.7292 11.5921 54.6367 14.0676 54.5388 16.0647L54.234 22.1508H50.8232L51.8664 6.11462H56.7793L58.3686 11.4743C58.8838 13.3126 59.3863 15.3276 59.751 17.2088H59.829C60.2753 15.3526 60.8268 13.2376 61.3802 11.4511L63.1109 6.11641H67.9331L68.8076 22.1526H65.2245L64.9705 16.0183L64.9759 16.0165Z" fill="white"/>
<path d="M71.6611 6.33415C72.844 6.13783 74.5983 5.98969 76.5595 5.98969C78.9779 5.98969 80.6723 6.352 81.8353 7.26045C82.8077 8.02076 83.3447 9.14695 83.3447 10.623C83.3447 12.654 81.8679 14.0693 80.4673 14.5637V14.6387C81.5976 15.0885 82.2344 16.1522 82.6462 17.6246C83.1506 19.4397 83.6422 21.5297 83.9615 22.1508H80.1879C79.9376 21.6867 79.5312 20.3981 79.0668 18.4135C78.6132 16.4092 77.9292 15.8738 76.4107 15.8541H75.315V22.1508H71.6629V6.33415H71.6611ZM75.3131 13.2305H76.7573C78.586 13.2305 79.68 12.3131 79.68 10.9192C79.68 9.45036 78.6567 8.70076 76.9732 8.69183C76.0914 8.69183 75.5744 8.74895 75.3131 8.8132V13.2305Z" fill="white"/>
<path d="M38.8389 24.0998C39.0275 24.0676 39.2852 24.0426 39.6353 24.0426C40.0145 24.0426 40.2921 24.1212 40.4735 24.2711C40.644 24.4085 40.7529 24.628 40.7529 24.8904C40.7529 25.1528 40.6694 25.3741 40.5098 25.524C40.3011 25.7275 39.9782 25.8256 39.6099 25.8256C39.5119 25.8256 39.4249 25.8203 39.3559 25.806V26.8626H38.8407V24.0998H38.8389ZM39.3541 25.4044C39.4194 25.4223 39.5029 25.4276 39.6081 25.4276C39.9963 25.4276 40.234 25.2367 40.234 24.91C40.234 24.6013 40.0145 24.4353 39.6553 24.4353C39.5119 24.4353 39.4085 24.4478 39.3541 24.4603V25.4044Z" fill="white"/>
<path d="M41.7454 24.4942H40.9326V24.0641H43.0861V24.4942H42.2661V26.8644H41.7454V24.4942Z" fill="white"/>
<path d="M44.2891 24.0641H44.8097V26.4342H45.9799V26.8626H44.2891V24.0641Z" fill="white"/>
<path d="M46.8888 24.0641V26.8626H46.3682V24.0641H46.8888Z" fill="white"/>
<path d="M47.4834 26.8644V24.0658H48.0766L48.8114 25.267C48.9983 25.5758 49.1652 25.9006 49.2958 26.2058L49.3067 26.2022C49.2704 25.831 49.2595 25.4705 49.2595 25.0421V24.0658H49.7403V26.8644H49.2015L48.4594 25.6329C48.278 25.3259 48.0893 24.985 47.9496 24.6673L47.937 24.6709C47.9569 25.035 47.9642 25.4044 47.9642 25.8631V26.8644H47.4834Z" fill="white"/>
<path d="M50.8831 24.4942H50.0703V24.0641H52.2238V24.4942H51.4038V26.8644H50.8831V24.4942Z" fill="white"/>
<path d="M52.8153 26.0719L52.5722 26.8626H52.0352L52.9477 24.0641H53.6099L54.5351 26.8626H53.9764L53.7187 26.0719H52.8153ZM53.6335 25.6864L53.4085 24.9975C53.3541 24.8244 53.3069 24.6334 53.2634 24.471H53.2543C53.2126 24.6352 53.169 24.8297 53.1182 24.9957L52.8987 25.6864H53.6317H53.6335Z" fill="white"/>
<path d="M54.9197 26.3057C55.0866 26.4003 55.3424 26.4842 55.6073 26.4842C55.9393 26.4842 56.1243 26.3307 56.1243 26.1023C56.1243 25.8917 55.981 25.7667 55.62 25.6382C55.1501 25.474 54.8489 25.2259 54.8489 24.8244C54.8489 24.3657 55.239 24.0212 55.8558 24.0212C56.1642 24.0212 56.3892 24.0855 56.538 24.1604L56.4128 24.5727C56.3094 24.5192 56.1116 24.4406 55.8449 24.4406C55.5147 24.4406 55.3751 24.6138 55.3751 24.778C55.3751 24.9921 55.5401 25.0939 55.9193 25.2367C56.4128 25.4223 56.6504 25.6668 56.6504 26.0684C56.6504 26.5181 56.3057 26.909 55.571 26.909C55.2698 26.909 54.9578 26.8251 54.8018 26.7305L54.9161 26.3075L54.9197 26.3057Z" fill="white"/>
<path d="M60.3967 25.7221C60.3804 25.3598 60.3605 24.9261 60.3623 24.5442H60.3514C60.257 24.8868 60.1391 25.2652 60.0158 25.6186L59.5985 26.8305H59.1994L58.822 25.6364C58.7113 25.2777 58.6079 24.8976 58.5335 24.5442H58.5245C58.5118 24.91 58.4954 25.358 58.4737 25.7382L58.4102 26.8626H57.9258L58.1145 24.0641H58.7966L59.1667 25.1885C59.2683 25.5187 59.3608 25.8506 59.428 26.163H59.4407C59.5168 25.8578 59.6148 25.5151 59.7255 25.1867L60.121 24.0641H60.7959L60.9592 26.8626H60.453L60.3986 25.7203L60.3967 25.7221Z" fill="white"/>
<path d="M62.0301 26.0719L61.787 26.8626H61.25L62.1626 24.0641H62.8247L63.75 26.8626H63.1912L62.9336 26.0719H62.0301ZM62.8483 25.6864L62.6234 24.9975C62.5689 24.8244 62.5218 24.6334 62.4782 24.471H62.4692C62.4274 24.6352 62.3839 24.8297 62.3331 24.9957L62.1136 25.6864H62.8465H62.8483Z" fill="white"/>
<path d="M64.6642 24.0641V25.1831H65.8671V24.0641H66.3877V26.8626H65.8671V25.6275H64.6642V26.8626H64.1436V24.0641H64.6642Z" fill="white"/>
<path d="M68.5743 25.6222H67.5021V26.4432H68.7013V26.8644H66.9814V24.0658H68.6378V24.4871H67.5021V25.2063H68.5743V25.624V25.6222Z" fill="white"/>
<path d="M69.1453 26.3057C69.3122 26.4003 69.568 26.4842 69.8329 26.4842C70.1649 26.4842 70.3499 26.3307 70.3499 26.1023C70.3499 25.8917 70.2066 25.7667 69.8456 25.6382C69.3757 25.474 69.0745 25.2259 69.0745 24.8244C69.0745 24.3657 69.4646 24.0212 70.0814 24.0212C70.3898 24.0212 70.6148 24.0855 70.7635 24.1604L70.6384 24.5727C70.535 24.5192 70.3372 24.4406 70.0705 24.4406C69.7403 24.4406 69.6006 24.6138 69.6006 24.778C69.6006 24.9921 69.7657 25.0939 70.1449 25.2367C70.6384 25.4223 70.876 25.6668 70.876 26.0684C70.876 26.5181 70.5313 26.909 69.7966 26.909C69.4954 26.909 69.1834 26.8251 69.0273 26.7305L69.1416 26.3075L69.1453 26.3057Z" fill="white"/>
<path d="M71.9168 26.0719L71.6737 26.8626H71.1367L72.0493 24.0641H72.7115L73.6367 26.8626H73.0779L72.8203 26.0719H71.9168ZM72.735 25.6864L72.5101 24.9975C72.4557 24.8244 72.4085 24.6334 72.3649 24.471H72.3559C72.3141 24.6352 72.2706 24.8297 72.2198 24.9957L72.0003 25.6864H72.7332H72.735Z" fill="white"/>
<path d="M74.9053 24.1033C75.103 24.0676 75.3915 24.0426 75.6945 24.0426C76.1027 24.0426 76.3802 24.1105 76.5725 24.2675C76.7286 24.396 76.8175 24.5888 76.8175 24.8297C76.8175 25.1902 76.5689 25.4365 76.3004 25.5294V25.5419C76.5072 25.6186 76.627 25.8113 76.6977 26.0844C76.7884 26.4342 76.8664 26.7555 76.9227 26.8644H76.3893C76.3458 26.7841 76.2768 26.552 76.197 26.204C76.1154 25.8399 75.9811 25.7203 75.6854 25.7132H75.4241V26.8644H74.9089V24.1033H74.9053ZM75.4205 25.3384H75.7289C76.0809 25.3384 76.2986 25.1563 76.2986 24.8779C76.2986 24.5727 76.0809 24.4299 75.7434 24.4282C75.5783 24.4282 75.4731 24.4406 75.4205 24.4549V25.3384Z" fill="white"/>
<path d="M77.9061 26.0719L77.663 26.8626H77.126L78.0385 24.0641H78.7007L79.626 26.8626H79.0672L78.8096 26.0719H77.9061ZM78.7243 25.6864L78.4993 24.9975C78.4449 24.8244 78.3977 24.6334 78.3542 24.471H78.3451C78.3034 24.6352 78.2599 24.8297 78.2091 24.9957L77.9895 25.6864H78.7225H78.7243Z" fill="white"/>
<path d="M80.2973 26.8644V25.6989L79.3975 24.0641H79.9925L80.3318 24.7815C80.4279 24.9868 80.5023 25.1456 80.5803 25.3366H80.5894C80.6602 25.1581 80.7418 24.985 80.8361 24.7798L81.179 24.0623H81.765L80.8198 25.6828V26.8626H80.2991L80.2973 26.8644Z" fill="white"/>
<path d="M82.2801 26.0719L82.037 26.8626H81.5L82.4126 24.0641H83.0747L84 26.8626H83.4412L83.1836 26.0719H82.2801ZM83.0983 25.6864L82.8734 24.9975C82.8189 24.8244 82.7718 24.6334 82.7282 24.471H82.7192C82.6774 24.6352 82.6339 24.8297 82.5831 24.9957L82.3636 25.6864H83.0965H83.0983Z" fill="white"/>
</svg>
